<svg width="98" height="67" viewBox="0 0 98 67" xmlns="http://www.w3.org/2000/svg"><title>variable-icon_0003_</title><g fill="none" fill-rule="evenodd"><g fill="#4A90E2"><path d="M28.7 60c-.06-.16-.08-1.178-.06-2.275l.06-1.975.8-.16c5.48-1.116 8.32-2.632 11.02-5.884 1.22-1.476 2.68-4.268 3.18-6.123.46-1.696.6-5.146.32-7-1.08-6.584-5.82-11.69-12.32-13.266-.88-.2-1.94-.38-2.36-.38h-.76l.06-2.332.06-2.354 1.26.06c1.7.08 4.66.86 6.5 1.696 9.36 4.33 14.34 14.54 11.86 24.355-1.54 6.045-5.98 11.41-11.6 13.983-3 1.397-7.76 2.374-8.02 1.656zM26.88 16.476c-.06-.16-.08-.54-.04-.858.06-.52.14-.558.86-.558h.8v.797c0 .778-.02.798-.76.858-.52.04-.78-.02-.86-.24z"/></g><g fill="#78AAE3"><path d="M26 60.238C16.52 59.44 8.52 52.04 7 42.625c-.4-2.433-.16-6.82.48-9.015 2.58-8.817 10.68-15.26 19.32-15.34l2.1-.02.06 2.075c.04 1.217-.04 2.155-.16 2.314-.12.14-.98.278-2.26.358-6.92.38-12.7 5.146-14.56 12.008-.58 2.134-.64 6.124-.1 8.178 1.84 7.08 7.64 11.848 15.14 12.427l1.88.14.06 2.075c.02 1.137-.02 2.134-.1 2.214-.3.278-1.16.338-2.86.198zM20.26 13.244c-.16-.458.28-1.835.96-2.912C23.94 6.084 29.46 5.425 33 8.956c1.02 1.017 1.96 2.792 2.04 3.85l.06.658-7.36.06c-6.56.04-7.36.02-7.48-.28z"/></g><g fill="#333232"><path d="M26.8 55.75c0-.22.24-.3 1-.3s1 .08 1 .3c0 .22-.24.3-1 .3s-1-.08-1-.3zM89.5 53.915c-1.12-.28-5.68-3.27-8.28-5.405l-1.68-1.397-2.42 1.736c-1.32.956-3.4 2.392-4.6 3.21-1.98 1.317-2.28 1.456-3.22 1.476-1.16 0-1.44-.16-4.12-2.393-1.94-1.636-2.28-2.214-2.14-3.71.12-1.117-.26-.7 6.3-6.982l2.22-2.153-.64-.838c-1.1-1.417-3.44-5.047-4.62-7.122-2.78-4.886-2.48-6.283 1.74-8.297 1.7-.817 2.26-.997 3.16-.997 1.42 0 1.74.26 3.84 3.012 1.72 2.294 4.28 5.386 4.84 5.845.28.24.84-.24 4.62-3.85 2.36-2.274 4.54-4.21 4.82-4.308.64-.26 1.7-.26 2.34-.02.28.1 1.68.977 3.12 1.914 2.58 1.716 2.62 1.736 2.94 2.813.3.897.32 1.196.1 1.914-.54 1.815-2.66 4.607-6.28 8.258-1.22 1.256-2.14 2.333-2.06 2.453.08.12 1.9 1.456 4.06 2.952C97.76 45 98 45.257 98 46.914c-.02.48-.12 1.097-.26 1.376-.26.56-4.4 4.408-5.64 5.266-.74.48-1.6.6-2.6.36zm4.56-6.283c.68-.618.78-.778.54-.937-1.08-.66-6.68-4.748-8.1-5.905-1.34-1.097-1.68-1.476-1.58-1.795.06-.22 1.04-1.296 2.18-2.393 2.96-2.833 5.32-5.486 6.64-7.4.62-.918 1.1-1.696 1.04-1.736-.04-.02-1-.658-2.14-1.396l-2.06-1.356-2.28 2.154c-1.26 1.177-3.58 3.39-5.16 4.907-2.6 2.473-2.94 2.712-3.36 2.553-.72-.26-6.5-6.98-8.12-9.435l-.5-.738-1.68.838c-.92.46-1.68.897-1.68.997 0 .1.44 1.037 1 2.095 1.18 2.313 3.26 5.545 5.42 8.457l1.6 2.114-2.16 2.075c-2.3 2.215-7.06 6.723-7.32 6.942-.16.14 2.26 2.294 2.8 2.533.26.1 3.64-2.134 7.56-5.006 1.42-1.06 2.76-1.916 2.96-1.916.2 0 1.24.758 2.3 1.655 2.4 2.074 4.24 3.41 6.64 4.826l1.86 1.077 1.38-1.236c.78-.678 1.78-1.576 2.22-1.975zM11.04 39.294c0-.678.08-.997.26-.997s.26.32.26.997c.02.72-.06.998-.26.998s-.28-.28-.26-.998zM12.94 38.556c-.38-.38.1-.458 2.66-.458 2.36 0 2.8.04 2.8.3 0 .258-.42.298-2.66.298-1.48 0-2.74-.06-2.8-.14zM37.2 38.397c0-.26.44-.3 2.7-.3 2.26 0 2.7.04 2.7.3s-.44.3-2.7.3c-2.26 0-2.7-.04-2.7-.3zM42.4 24.434c-.36-.38-.6-.758-.54-.837.16-.14 1.54 1.097 1.54 1.376 0 .32-.34.14-1-.54zM19.2 15.06c0-.26.46-.3 3-.3s3 .04 3 .3-.46.3-3 .3-3-.04-3-.3zM30.04 15.12c.06-.2 1-.28 3.38-.36 1.8-.06 3.32-.08 3.36-.06.04.04-.04.18-.18.36-.2.24-.82.3-3.44.3-2.46 0-3.18-.06-3.12-.24zM34.2 11.23c0-.2-.18-.58-.4-.858-.42-.518-.5-.798-.24-.798.14 0 1.24 1.696 1.24 1.895 0 .06-.14.1-.3.1-.16 0-.3-.16-.3-.34z"/></g><g fill="#26150C"><path d="M25.2 62.013c-2.94-.34-6.28-1.436-8.58-2.832-.58-.338-1.22-.717-1.4-.837-1.76-1.057-4.26-3.45-6.02-5.764-2.08-2.774-3.74-7.022-4.16-10.792-.6-5.107.78-10.95 3.48-14.76.24-.34.46-.7.5-.838.14-.42 1.42-1.915 2.84-3.292 3.3-3.27 7.96-5.624 12.4-6.263.7-.1.74-.14.74-.778v-.698h-3.06c-2.84 0-3.1-.04-3.44-.4-.34-.38-.36-.538-.14-1.855.46-2.653 2-4.966 4.36-6.582 4.58-3.112 10.98-1.177 13.46 4.05.38.777.64 1.734.72 2.612.22 2.134.16 2.174-3.6 2.174h-3.02l.08.697c.08.6.16.7.62.7.52 0 1.62.258 3.88.876 1.88.52 5.54 2.414 6.94 3.61 1.5 1.277 4.28 4.25 5.02 5.386 1.96 2.97 3.32 6.462 3.76 9.693.4 2.972.02 7.92-.76 9.654-.1.22-.42 1.097-.72 1.955-.3.838-.76 1.855-1.02 2.254-.26.38-.48.778-.48.857 0 .4-2.36 3.37-3.72 4.708-1.32 1.277-3.82 3.192-4.78 3.63-.32.14-.74.36-.9.46-1.62 1.017-5.28 2.114-8.02 2.393-2.26.22-2.84.22-4.98-.02zm6.2-2.353c2.92-.48 6.96-2.194 8.96-3.79 2-1.596 4.18-3.97 5.02-5.485 1.78-3.192 2.6-5.346 3.02-8.02.48-3.01-.12-8.416-1.18-10.59-.24-.46-.42-.938-.42-1.058 0-.2-.58-1.356-1.1-2.174-1.94-3.09-3.32-4.488-6.66-6.78-.6-.42-2.54-1.418-3.54-1.817-2.18-.877-5.16-1.396-8.02-1.396-2.62 0-4.68.4-6.94 1.317-.64.26-1.28.478-1.42.478-.12 0-.8.36-1.48.798-.66.44-1.28.798-1.34.798-.24 0-1.82 1.318-3.22 2.694-1.28 1.256-2.88 3.27-2.88 3.63 0 .06-.12.28-.26.44-.22.258-1.12 2.193-1.74 3.71-1.08 2.712-1.4 8.436-.62 11.468 2.1 8.278 7.64 13.683 16.02 15.638.72.16 1.58.34 1.9.36 1.34.14 4.48 0 5.9-.22zm-3.2-43.803c0-.4-.1-.498-.5-.498s-.5.098-.5.497c0 .4.1.5.5.5s.5-.1.5-.5zm6.6-2.952c0-.458-.76-2.294-1.18-2.912-1.16-1.616-3.88-3.012-5.92-3.012-1.36 0-3.28.64-4.44 1.477-1.22.878-1.8 1.736-2.48 3.67l-.36 1.038h7.2c5.66 0 7.18-.06 7.18-.26z"/><path d="M25.18 55.79c-2.4-.34-4.92-1.476-7.52-3.35-1.32-.958-2-1.636-3.02-3.053-2.6-3.55-3.56-6.343-3.52-10.192.02-2.992.44-4.787 1.7-7.38.36-.758.56-1.078 1.48-2.414.64-.936 2.92-3.15 4-3.908 6.22-4.29 14.68-3.87 20.4.997 1.14.996 2.88 3.01 3.5 4.108.2.38.46.838.58 1.037 1.22 2.174 1.7 4.468 1.68 7.96-.02 2.572-.06 2.93-.66 4.666-1.02 3.033-1.96 4.55-4.3 6.883-1.12 1.137-4.14 3.31-4.6 3.31-.1 0-.46.14-.78.3-1.68.878-6.34 1.416-8.94 1.037zm1.62-4.767c0-2.154.06-2.693.34-2.992.42-.478.84-.458 1.4.08.44.4.46.58.46 2.993v2.553h.8c1.62 0 4.04-.938 6.34-2.454l1.24-.817-1.88-1.935c-1.92-1.935-2.24-2.553-1.66-3.132.6-.598 1.22-.26 3.1 1.596l1.86 1.855.5-.5c1.22-1.236 2.56-4.428 3-7.12l.14-.858H39.8c-1.44 0-2.8-.1-3.02-.2-.44-.24-.52-1.177-.14-1.556.16-.16 1.12-.24 3.02-.24h2.78l-.14-1.036c-.32-2.294-1.32-4.767-2.66-6.602l-.7-.978-1.92 1.915c-1.96 1.935-2.58 2.274-3.18 1.676-.6-.598-.26-1.216 1.68-3.17l1.94-1.936-.88-.638c-1.28-.957-3.86-2.114-5.52-2.473-2.24-.5-2.06-.678-2.06 2.234 0 1.974-.06 2.633-.32 2.992-.36.517-1 .557-1.52.098-.32-.28-.36-.658-.36-2.992 0-2.652 0-2.652-.46-2.652-.7 0-3.42.718-4.5 1.196-1.02.44-3.44 2.015-3.44 2.214 0 .08.86 1.038 1.9 2.135 1.04 1.096 1.9 2.053 1.9 2.153 0 .28-.86 1.077-1.18 1.077-.18 0-1.2-.878-2.26-1.935L16.8 29.62l-.5.6c-1.28 1.575-2.58 4.686-2.88 7l-.16 1.077h2.88c2.86 0 2.86 0 3.1.5.18.378.16.577-.12.996-.32.5-.36.5-3.06.5h-2.72l.12 1.176c.18 1.594 1.24 4.467 2.2 5.863.44.638.88 1.197.98 1.256.1.06 1.08-.74 2.18-1.796 1.1-1.057 2.12-1.915 2.28-1.915.4 0 1.1.717 1.1 1.116 0 .18-.86 1.217-1.92 2.294-1.06 1.057-1.88 2.015-1.82 2.115.32.518 2.74 1.914 4.2 2.433 1.86.638 2.3.758 3.4.798l.74.02v-2.633z"/><path d="M26.92 39.853c-.26-.36-.32-1.037-.32-3.31 0-2.754.02-2.873.5-3.332.26-.278.58-.498.7-.498s.44.22.7.5c.48.458.5.617.5 2.692v2.194h2.16c2.44 0 3.04.24 3.04 1.176 0 .958-.22 1.018-3.72 1.018-3.14 0-3.26-.02-3.56-.44z"/></g><g fill="#FBFBFB"><path d="M23.5 66.72c-5.78-.797-10.74-3.21-15.08-7.36-1.64-1.575-4.02-4.647-5.12-6.582C.14 47.113-.82 39.374.78 32.213 2.1 26.37 6.4 20.106 11.62 16.456l1.7-1.197-.08-1.098c-.1-1.297.7-4.907 1.38-6.243 1.64-3.253 5.22-6.444 8.08-7.202 2.98-.798 5.2-.898 8.14-.4 2.28.4 3.42.9 5.5 2.435 1.72 1.276 3.38 3.25 4.32 5.146.7 1.375 1.6 5.324 1.48 6.422-.08.757-.04.877.44 1.136 1.12.58 4.18 3.092 5.66 4.668 1.64 1.735 3.58 4.488 4.6 6.483 2.16 4.267 3.34 10.19 2.94 14.84-.68 7.997-4.8 15.377-11.28 20.244-2.2 1.636-5.98 3.55-8.4 4.23-3.62 1.036-8.62 1.355-12.6.797zm6.68-5.086c3.7-.38 7.04-1.595 10.22-3.69 4.32-2.872 7.24-6.762 8.98-12.007 3.04-9.156-.84-20.146-8.96-25.432-2.78-1.815-6.26-3.172-8.94-3.47-1.26-.16-1.54-.4-1.44-1.317l.06-.658 3.2-.1 3.2-.1v-1.496c-.02-1.316-.12-1.715-.74-3.012-2.16-4.548-7.4-6.363-12.06-4.19-2.6 1.198-4.42 3.692-4.94 6.743-.34 2.075-.4 2.035 3.42 2.095l3.12.06.06.658c.08.778-.24 1.236-.86 1.236-.98 0-4.5 1.058-6.24 1.895-7.18 3.39-11.62 9.494-12.78 17.592-.94 6.383 1.28 13.284 5.86 18.21 3.24 3.492 8.1 6.085 12.66 6.763 3.12.46 3.6.48 6.18.22z"/><path d="M24.9 53.915c-2.3-.538-4.82-1.715-6.22-2.932l-.78-.678 1.96-1.995c1.94-1.974 2.16-2.334 1.7-2.792-.46-.46-.88-.22-2.82 1.715l-1.96 1.935-.7-.778c-1.56-1.795-2.9-5.007-2.94-7.1l-.04-1.297 2.84-.06c2.64-.04 2.84-.08 2.96-.46.26-.817-.16-.956-3.06-1.016l-2.74-.06-.06-.758c-.14-1.697 1.5-5.825 3.04-7.62l.7-.8 1.98 1.956c1.56 1.556 2.08 1.955 2.46 1.895.94-.12.66-.717-1.3-2.77C18.86 29.18 18 28.203 18 28.123c0-.28 2.44-1.954 3.66-2.493 1.36-.637 4.14-1.335 4.88-1.255l.56.06.1 2.892c.1 2.872.1 2.892.58 2.952.26.04.56-.04.64-.2.1-.14.18-1.457.18-2.913 0-2.234.04-2.673.32-2.773.6-.22 3.56.56 5.38 1.437 1.84.898 3.3 1.935 3.3 2.354 0 .14-.8 1.057-1.8 2.035-1.4 1.395-1.8 1.914-1.8 2.333 0 .478.08.558.56.558.42 0 .94-.398 2.34-1.794.98-.978 1.9-1.795 2.04-1.795.32 0 1.68 1.816 2.32 3.092.68 1.377 1.34 3.59 1.4 4.788l.04.997-2.9.1-2.9.1v1.196l2.86.06c2.26.04 2.88.12 2.96.34.22.558-.56 3.61-1.34 5.265-.8 1.715-2.1 3.61-2.48 3.61-.12 0-1.06-.858-2.1-1.895-1.9-1.895-2.42-2.194-2.78-1.556-.28.52.14 1.137 1.96 2.953.9.877 1.62 1.695 1.62 1.815 0 .32-2.2 1.815-3.66 2.473-1.56.698-3.42 1.197-4.52 1.197h-.82v-2.773c0-2.912-.12-3.33-.94-3.17-.32.06-.38.378-.46 2.95l-.1 2.893-.9.04c-.5 0-1.08-.02-1.3-.08zm8.9-14.62c0-.74-.18-.778-3-.858l-2.1-.04-.1-2.454c-.08-1.875-.16-2.493-.4-2.632-.42-.26-.52-.24-.88.12-.26.24-.32.818-.32 3.072 0 1.516.06 2.892.12 3.072.1.28.6.32 3.4.32h3.28v-.6zM88.2 49.926c-2.42-1.476-4.44-2.972-6.7-4.967l-1.8-1.596-2.6 1.934c-2.88 2.135-7.58 5.366-7.8 5.366-.22 0-3.4-2.613-3.4-2.793 0-.078 2.14-2.173 4.76-4.686 3.2-3.052 4.7-4.608 4.58-4.767-4.1-5.346-8.08-11.808-7.76-12.586.12-.32 3.14-1.894 3.6-1.894.16 0 .56.38.9.857 1.96 2.853 7.52 9.315 8 9.315.18-.02 1.44-1.097 2.82-2.413 1.38-1.317 3.68-3.51 5.14-4.887l2.62-2.493 2.34 1.536c1.64 1.078 2.3 1.616 2.22 1.816-.28.718-2.3 3.41-3.86 5.086-.92 1.017-2.72 2.852-4.02 4.07l-2.32 2.213.76.678c1.26 1.117 3.64 2.893 6.68 5.007 1.56 1.097 2.84 2.054 2.84 2.154 0 .26-4.38 4.09-4.76 4.15-.18.02-1.2-.46-2.24-1.098z"/></g></g></svg>