<svg width="97" height="63" viewBox="0 0 97 63" xmlns="http://www.w3.org/2000/svg"><title>variable-icon_0001_</title><g fill="none" fill-rule="evenodd"><g fill="#AA7D03"><path d="M21.234 25.697c-.865-.855 3.257-12.82 4.665-13.574.522-.278 1.266-.2 1.386.14.04.138-.14.337-.422.436-.543.218-1.046.973-1.85 2.82-.28.697-.663 1.552-.804 1.87-.362.775-1.81 5.465-2.112 6.856-.14.596-.28 1.212-.32 1.35-.082.26-.343.32-.544.1zM30.845 25.597c-.04-.14-.22-.874-.402-1.65-.18-.754-.362-1.55-.422-1.728-.18-.597.504-.418.745.178.302.815.764 3.1.663 3.28-.16.237-.482.178-.583-.08zM25.316 19.993c0-.437.16-.477 1.97-.556 1.85-.06 1.81 0 1.026-1.63-.422-.894-.463-1.113-.18-1.113.28 0 1.668 2.96 1.527 3.28-.162.436-4.344.436-4.344.02zM32.092 20.152c-.342-.358-.12-.696.422-.636.322.04.543.18.543.358 0 .318-.724.517-.965.278z"/></g><path d="M31.51 26.214c-.202-.1-.363-.338-.363-.477 0-.16-.14-.3-.302-.3-.34 0-.402-.495-.1-.694.3-.18.24-.497-.1-.497-.363 0-.383-.238-.06-.556.18-.18.16-.24-.102-.24-.402 0-.442-.218-.1-.555.18-.18.16-.24-.08-.24-.182 0-.383-.217-.443-.476-.12-.478-.12-.478-2.775-.438-3.056.02-2.755-.18-3.378 2.266-.2.814-.523 1.63-.724 1.848-.462.517-1.287.497-1.427-.02-.06-.22-.242-.398-.382-.398-.16 0-.282-.14-.282-.298 0-.16.14-.298.302-.298.16 0 .382-.338.522-.834.684-2.485 1.83-6.082 2.092-6.56.16-.277.3-.615.3-.734 0-.378 1.45-3.22 1.952-3.796.28-.338.703-.596.945-.596.643 0 2.05 1.947 3.478 4.81 1.046 2.106 1.207 2.324 1.61 2.205.683-.16 1.467.418 1.467 1.113 0 .537-.523 1.212-.945 1.212-.12 0-.06.636.16 1.65.483 2.087.483 2.047-.12 2.623-.543.557-.643.577-1.146.28zm-2.253-6.658c-.06-.18-.12-.398-.12-.497 0-.1-.142-.18-.302-.18s-.302-.12-.302-.258c0-.338-.503-1.352-1.207-2.465-.522-.814-.542-.834-.764-.397-.3.596-.844 1.928-1.045 2.524-.08.278-.22.656-.302.854-.1.24-.04.338.18.338.182 0 .323.1.323.2 0 .118.744.198 1.83.198 1.588 0 1.81-.04 1.71-.318z" fill="#DA9B00"/><path d="M87.328 51.056c-1.79-.934-5.39-3.36-7.3-4.91l-1.708-1.37-2.413 1.73c-4.082 2.88-6.616 4.49-7.34 4.63-1.166.238-2.03-.18-4.262-2.028-2.373-1.967-2.695-2.484-2.554-4.034.122-1.113-.26-.696 6.315-6.956l2.232-2.107-1.247-1.728c-1.508-2.086-3.52-5.246-4.544-7.154-2.192-4.054-1.77-5.446 2.272-7.354 1.71-.814 2.272-.993 3.177-.993 1.428 0 1.75.26 3.86 3.002 1.67 2.206 4.927 6.04 5.128 6.04.06 0 2.03-1.827 4.404-4.073 2.373-2.247 4.544-4.174 4.826-4.274.643-.258 1.71-.258 2.352-.02.282.1 1.69.974 3.137 1.908 2.594 1.71 2.634 1.73 2.956 2.803.302.894.322 1.192.1 1.907-.542 1.81-2.634 4.552-6.233 8.17l-2.332 2.344.603.497c.342.258 2.17 1.57 4.102 2.92 3.78 2.624 4.04 2.922 4.04 4.552-.02.477-.12 1.093-.26 1.37-.26.558-4.424 4.394-5.67 5.248-1.066.696-2.132.656-3.64-.12zm6.354-6.52c-.02-.058-.744-.615-1.65-1.21-2.03-1.352-6.815-4.91-7.9-5.864l-.805-.715 2.352-2.226c3.237-3.08 5.59-5.663 6.937-7.61.623-.915 1.105-1.69 1.045-1.73-.04-.02-1.005-.656-2.15-1.39l-2.073-1.352-2.192 2.047c-1.207 1.132-3.62 3.398-5.35 5.028l-3.156 2.98-1.186-1.29c-1.87-2.008-4.967-5.685-6.395-7.573l-1.285-1.73-1.67.816c-.924.457-1.668.894-1.668.993 0 .1.442 1.033 1.005 2.086 1.186 2.306 3.278 5.525 5.49 8.447.884 1.172 1.528 2.225 1.427 2.305-.1.08-2.213 2.067-4.706 4.392-2.493 2.325-4.605 4.313-4.685 4.372-.162.14 2.27 2.286 2.814 2.524.26.1 3.98-2.345 7.922-5.227 1.408-1.034 2.614-1.87 2.675-1.87.08 0 .926.677 1.87 1.492 2.414 2.087 4.445 3.577 6.858 5.008l2.09 1.232 2.192-1.908c1.207-1.053 2.192-1.967 2.192-2.027z" fill="#323232"/><g fill="#FFE709"><path d="M13.935 56.62c-.302-.317-.322-.476-.12-.775.14-.218.24-.536.24-.695 0-.26 1.227-.298 10.235-.298 10.175 0 10.215 0 10.778-.437.503-.378.543-.517.462-1.51-.12-1.253.12-1.472.986-.895.32.2.744.457.945.576.222.12.483.378.604.596.12.2.382.597.583.855.18.258.342.676.342.934 0 .28.1.657.24.875.2.3.18.458-.12.776-.382.418-.523.418-12.588.418-12.064 0-12.205 0-12.587-.417zM18.077 33.984c-.603-.338-1.207-.735-1.327-.894-.12-.16-.282-.298-.342-.298-.22 0-2.755-2.544-2.755-2.763 0-.12-.08-.22-.2-.22-.222 0-1.067-1.49-1.65-2.98-.12-.28-.28-.656-.382-.835-.1-.2-.18-.557-.18-.815 0-.258-.12-.576-.24-.695-.202-.2-.283-2.226-.323-8.407-.06-7.155-.02-8.248.262-8.844.622-1.312.3-1.272 9.75-1.272 6.395 0 8.627.06 8.808.24.362.356.342 8.902-.02 8.902-.14 0-.623-.536-1.046-1.192-.925-1.41-1.508-1.85-2.21-1.67-.424.1-.705.517-1.41 1.988-.502 1.013-.964 2.106-1.024 2.404-.08.28-.262.756-.403 1.034-.16.278-.28.715-.28.954 0 .238-.082.497-.202.556-.1.06-.2.318-.2.577 0 .238-.082.516-.182.636-.1.1-.38.935-.623 1.87-.22.933-.502 1.887-.623 2.105-.503.974.925 2.206 1.61 1.41.12-.158.44-1.112.702-2.125.282-1.014.584-1.928.684-2.027.1-.1 1.307-.14 2.674-.12l2.494.06-.06.994c-.02.556-.18 1.45-.362 1.987-.443 1.352-1.77 3.836-2.474 4.67-.543.636-.623.676-1.045.438-.402-.26-.503-.22-1.066.338-.542.556-.582.655-.36 1.033.34.537.14.795-1.57 1.868-1.005.637-3.096 1.71-3.297 1.69 0 0-.523-.278-1.126-.596z"/><path d="M25.376 19.675c-.26-.1-.462-.258-.462-.338 0-.08.362-1.013.784-2.047.563-1.39.864-1.888 1.126-1.888.482 0 2.473 3.796 2.15 4.114-.28.278-3.035.417-3.598.16z"/></g><g fill="#FED009"><path d="M13.854 55.31c0-.2.2-.677.443-1.054.24-.378.543-.875.663-1.074.1-.198.382-.477.603-.596.202-.12.744-.437 1.207-.715l.804-.496h8.988c4.927 0 9.03.06 9.11.14.08.06.18.655.24 1.29.1 1.153.1 1.173-.623 1.81l-.745.635H24.51c-6.574 0-10.052.06-10.052.198 0 .12-.14.2-.302.2-.16 0-.302-.16-.302-.34zM21.716 49.208c-.16-.18-.22-.915-.18-2.047l.06-1.748h9.853l.06 1.75c.04 1.13-.02 1.867-.182 2.046-.342.417-9.27.417-9.612 0zM24.592 42.868c-.04-.14-.06-1.332-.04-2.643l.06-2.365h3.82v5.167l-1.87.06c-1.407.04-1.89 0-1.97-.22zM23.908 35.654c-1.226-.16-3.5-.676-3.96-.915-.705-.338-.564-.656.502-1.094.522-.218 1.588-.814 2.352-1.33 1.146-.776 1.468-.915 1.75-.737.462.298 1.226.278 1.528-.02.28-.28.322-1.55.04-1.55-.342 0-.22-.398.382-1.253 1.267-1.828 2.132-3.915 2.514-6 .18-.975.3-1.194.623-1.194.4 0 .602.517 1.145 2.96.16.657.422 1.273.583 1.373.463.278 1.327.02 1.448-.458.1-.357-.24-2.404-.563-3.398-.08-.258.04-.437.482-.676.423-.198.624-.457.624-.755 0-.696-.242-.895-1.107-.975l-.804-.06-1.047-2.086-1.046-2.088v-4.71l-.02-4.73 5.39.02c6.112.02 6.735.12 7.34 1.173.36.655.38 1.073.3 8.843-.04 5.565-.14 8.268-.3 8.546-.122.22-.484 1.113-.786 1.988-.3.874-.662 1.73-.803 1.907-.16.158-.282.417-.282.556 0 .14-.965 1.212-2.15 2.365-3.34 3.28-5.57 4.174-10.82 4.314-1.427.04-2.935.02-3.317-.02zm8.345-4.83c.543-.338 1.106-.576 1.247-.536.14.06.26.02.26-.08 0-.12.142-.2.303-.2.18 0 .382-.158.442-.336.16-.418 1.126-1.352 1.568-1.53.16-.06.302-.28.302-.498 0-.218.18-.516.402-.675.22-.16.342-.34.282-.4-.082-.058.06-.356.3-.655.22-.278.362-.616.302-.715-.06-.1 0-.298.12-.457.12-.16.282-.537.342-.835.2-1.073.262-13.196.06-13.574-.32-.596-.783-.636-1.527-.08l-.704.537.02 6.32c.02 3.48-.04 6.44-.14 6.58-.08.14-.122.417-.1.616.04.18-.082.397-.243.457-.18.06-.32.338-.32.596 0 .237-.203.595-.424.754-.24.16-.543.497-.663.755-.12.238-.443.556-.704.675-.262.14-.524.318-.604.417-.2.3-2.514 1.332-3.137 1.392-.323.04-.665.14-.785.258-.563.556.02 2.107.703 1.888.222-.08.383-.04.383.06 0 .337 1.247-.06 2.313-.736zM7.68 23.51c-.24-.04-.723-.397-1.065-.774l-.603-.696v-9.958l.684-.674c.482-.477.865-.676 1.307-.676h.603l.06 5.922c.04 3.24.02 6.14-.02 6.46-.06.536-.12.556-.965.397zM44.398 23.113c-.04-.298-.06-3.22-.02-6.46l.06-5.92h.603c.444 0 .826.198 1.308.675l.684.675v9.977l-.643.676c-.363.377-.946.735-1.288.814-.583.12-.644.08-.704-.437zM21.576 21.92c.06-.198.16-.595.24-.894.06-.317.242-.556.403-.556.34 0 .34.04.04 1.014-.12.437-.363.775-.503.775-.18 0-.242-.14-.18-.34z"/><path d="M24.833 19.695c-.14-.22.18-1.133.463-1.292.12-.08.2.18.18.676 0 .754-.36 1.092-.643.615zM25.517 17.568c0-.218.14-.556.3-.755.162-.218.303-.536.303-.695.02-.398.563-1.133.724-.954.08.06-.06.477-.302.934-.22.437-.422.934-.422 1.073 0 .14-.14.38-.302.518-.24.198-.3.18-.3-.12zM23.426 16.456c.26-.875 1.87-4.055 2.13-4.273.142-.12.504-.28.825-.358.404-.1.544-.08.544.16 0 .158-.24.337-.563.396-.582.12-1.225 1.174-2.17 3.56-.382.953-1.046 1.39-.764.516z"/></g><path d="M12.105 58.906c-1.005-1.43-.704-4.53.643-6.558 1.247-1.85 3.74-3.26 5.75-3.26h.544l.08-2.126c.06-1.67.16-2.266.443-2.703.442-.657 1.85-1.392 2.373-1.213.34.1.362-.08.362-2.564V37.8l-1.448-.358c-.805-.18-1.61-.417-1.77-.497-.16-.08-.804-.377-1.407-.675-1.59-.736-1.93-.954-2.976-1.81-1.51-1.25-3.098-2.98-3.66-3.993-.182-.3-.483-.815-.684-1.113-.222-.318-.584-1.173-.825-1.888-.36-1.113-.502-1.332-.924-1.392-1.91-.218-3.177-.914-4.162-2.325l-.543-.796-.06-4.77c-.1-6.34-.02-7.055.926-8.088.985-1.073 2.13-1.77 2.976-1.81.462-.018.683-.138.683-.336 0-1.372 1.287-3.16 2.715-3.796.764-.338 1.71-.378 15.382-.378 13.673 0 14.62.04 15.383.378 1.427.636 2.714 2.424 2.714 3.796 0 .198.22.318.683.337.844.04 1.99.736 2.976 1.81.944 1.032 1.024 1.748.924 8.088l-.06 4.77-.543.794c-.985 1.41-2.252 2.106-4.162 2.324-.422.06-.563.28-.925 1.392-.24.715-.603 1.57-.824 1.888-.202.298-.504.814-.685 1.113-.563 1.013-2.15 2.742-3.66 3.994-1.045.856-1.387 1.074-2.975 1.81-.604.298-1.247.596-1.408.675-.16.08-.965.318-1.75.497l-1.467.358v2.683c0 2.484.02 2.663.362 2.564.523-.18 1.93.556 2.372 1.212.28.436.382 1.032.442 2.702l.08 2.126h.543c.282 0 .885.1 1.327.22 3.72.973 5.992 4.172 5.61 7.89-.24 2.205 1.287 1.986-14.88 2.145l-14.095.14-.402-.577zm26.743-3.12c-.06-.974-.925-2.544-1.69-3.1-1.346-.974-1.688-1.014-10.636-1.014-8.948 0-9.29.04-10.637 1.013-.965.716-2.15 3.38-1.69 3.816.06.08 5.65.12 12.408.1l12.285-.06-.04-.754zm-7.5-8.387v-1.69h-9.652v3.378h9.652v-1.69zm-3.177-6.857l-.06-2.385h-3.176l-.06 2.385-.06 2.384h3.418l-.06-2.384zm2.876-5.466c.785-.16 2.253-.695 3.298-1.192 1.57-.755 2.172-1.193 3.54-2.544 1.366-1.35 1.81-1.947 2.593-3.556 1.408-2.862 1.508-3.677 1.528-12.54 0-7.89-.06-8.427-.905-8.765-.18-.06-6.796-.12-14.698-.12-14.036 0-14.357 0-14.76.397-.22.22-.442.596-.502.855-.08.258-.1 4.094-.04 8.506.08 8.963.08 8.903 1.568 11.884 1.226 2.465 3.418 4.61 6.012 5.863 1.046.517 2.494 1.053 3.217 1.192 1.81.398 7.32.398 9.15.02zM8.426 17.09v-6.16h-.483c-.262 0-.684.18-.945.378-.483.378-.483.398-.543 5.307-.04 2.722 0 5.147.06 5.405.16.656.824 1.232 1.407 1.232h.503v-6.16zm37.6 5.765c.222-.22.443-.596.503-.835.06-.258.1-2.683.06-5.405-.06-4.91-.06-4.93-.543-5.307-.262-.2-.684-.377-.945-.377h-.483v12.322h.502c.28 0 .684-.178.905-.397z" fill="#010100"/><g fill="#FFF"><path d="M10.778 62.762c-.503-.14-1.026-.517-1.63-1.193-.763-.875-.944-1.253-1.306-2.823-.24-.994-.422-2.146-.422-2.564 0-.974.704-3.756 1.206-4.69 1.106-2.166 3.52-4.51 5.55-5.406.784-.357.845-.437 1.166-1.71.342-1.37 1.488-3.357 2.07-3.576.202-.08-.08-.277-.863-.615-1.67-.676-4.546-2.683-6.114-4.213-1.387-1.392-2.996-3.578-3.92-5.327-.323-.596-.705-1.113-.886-1.152-1.608-.457-4.162-2.604-4.886-4.055-.643-1.35-.804-3.26-.704-8.943.06-3 .16-5.863.242-6.36.26-1.57 1.99-3.696 3.92-4.81.383-.217 1.066-.953 1.51-1.628.883-1.312 2.914-3.06 3.72-3.22.28-.04.883-.18 1.366-.278C11.944-.06 41.1-.06 42.246.2c.483.098 1.086.237 1.368.277.804.16 2.835 1.908 3.72 3.22.442.675 1.126 1.41 1.508 1.63 2.03 1.172 3.478 3.02 4.042 5.166.3 1.093.36 2.246.36 6.598 0 4.612-.04 5.447-.38 6.72-.684 2.582-2.997 4.967-5.45 5.683-.18.04-.563.556-.885 1.152-.926 1.75-2.534 3.935-3.922 5.327-1.568 1.53-4.443 3.537-6.112 4.213-.785.338-1.066.536-.865.616.584.22 1.73 2.207 2.072 3.578.322 1.272.382 1.352 1.166 1.71 2.03.894 4.444 3.24 5.55 5.405.503.934 1.207 3.716 1.207 4.69 0 .418-.18 1.57-.423 2.564-.362 1.59-.543 1.948-1.307 2.822-.603.675-1.146 1.092-1.65 1.23-1.004.26-30.402.24-31.467-.038zm30.06-4.174c.142-.278.262-1.192.262-2.246 0-1.53-.08-1.947-.543-2.92-1.025-2.167-3.076-3.658-5.328-3.877-.645-.06-1.288-.198-1.41-.318-.18-.12-.26-.834-.26-2.206 0-2.582-.402-3.298-2.11-3.635l-.806-.18-.06-2.643c-.02-1.59.02-2.742.16-2.88.1-.14.725-.36 1.348-.498 1.508-.338 4.283-1.61 5.57-2.584 2.895-2.146 4.946-5.087 6.012-8.585.08-.22.463-.358 1.327-.437 1.37-.14 2.113-.457 2.776-1.173.985-1.053 1.066-1.55 1.066-7.353 0-4.87-.04-5.505-.382-6.24-.503-1.094-1.488-1.81-2.956-2.127l-1.186-.278-.12-.895c-.182-1.212-.645-2.007-1.53-2.683l-.723-.557H11.1l-.724.556c-.885.675-1.348 1.47-1.53 2.682l-.12.895-1.186.278c-1.467.318-2.453 1.033-2.955 2.126-.342.737-.382 1.373-.382 6.242 0 5.803.08 6.3 1.065 7.353.664.716 1.408 1.033 2.775 1.173.865.08 1.247.218 1.327.437 1.066 3.498 3.117 6.44 6.012 8.585 1.287.974 4.062 2.246 5.57 2.584.624.14 1.247.358 1.348.497.14.14.18 1.293.16 2.882l-.06 2.644-.804.18c-1.71.336-2.112 1.052-2.112 3.635 0 1.373-.08 2.088-.24 2.207-.142.12-.785.26-1.428.318-2.253.22-4.304 1.71-5.33 3.876-.462.975-.542 1.392-.542 2.922 0 1.054.12 1.968.26 2.246l.263.437H40.578l.26-.437z"/><path d="M24.11 31.6c-.825-.815-.202-2.187.985-2.187.603 0 1.427.755 1.427 1.292 0 .14-.18.477-.422.775-.503.636-1.408.696-1.99.12zM28.754 31.42c-.885-.874-.342-1.828 1.347-2.305 2.233-.636 3.882-1.987 5.008-4.114l.563-1.052.102-6.558c.1-6.698.16-7.254.925-7.533.563-.218.884-.14 1.387.378l.503.477v5.962c0 3.538-.08 6.4-.22 7.016-.625 2.96-2.917 5.862-5.712 7.234-1.89.934-3.278 1.113-3.9.497zM87.027 47.538c-2.313-1.39-4.344-2.882-6.676-4.91-.944-.813-1.79-1.49-1.87-1.49-.06 0-1.266.836-2.674 1.87-2.895 2.106-7.54 5.285-7.76 5.285-.222 0-3.42-2.603-3.42-2.782 0-.06 1.227-1.27 2.715-2.682 1.49-1.41 3.64-3.438 4.767-4.53l2.07-1.99-1.588-2.105c-3.178-4.233-6.636-9.997-6.375-10.653.1-.298 3.157-1.888 3.6-1.888.16 0 .904.835 1.668 1.85 1.368 1.807 4.344 5.345 6.274 7.49l.985 1.094 3.157-2.98c1.728-1.65 4.14-3.896 5.348-5.03l2.19-2.046 2.334 1.53c1.65 1.074 2.312 1.61 2.232 1.81-.282.714-2.333 3.397-3.88 5.067-.926 1.013-2.756 2.842-4.043 4.054l-2.33 2.207.763.676c1.267 1.113 3.66 2.88 6.716 4.988 1.567 1.094 2.854 2.048 2.854 2.147 0 .26-4.544 4.174-4.866 4.174-.14 0-1.146-.516-2.19-1.152z"/></g></g></svg>