<svg xmlns="http://www.w3.org/2000/svg" xmlns:xlink="http://www.w3.org/1999/xlink" fill="none" version="1.1" width="1024" height="1024" viewBox="0 0 1024 1024"><defs><linearGradient x1="0" y1="0.8605272769927979" x2="1" y2="0.8605272769927979" id="master_svg1_43_05183"><stop offset="0%" stop-color="#DC5B49" stop-opacity="1"/><stop offset="20.714285969734192%" stop-color="#FFABA0" stop-opacity="1"/><stop offset="84.03773307800293%" stop-color="#FFABA0" stop-opacity="1"/><stop offset="100%" stop-color="#DC5B49" stop-opacity="1"/></linearGradient><linearGradient x1="0.5" y1="0" x2="0.5" y2="1" id="master_svg2_43_05541"><stop offset="39.28571343421936%" stop-color="#FC8F83" stop-opacity="1"/><stop offset="75%" stop-color="#F37869" stop-opacity="1"/><stop offset="100%" stop-color="#EE6F5E" stop-opacity="1"/></linearGradient><filter id="master_svg3_43_21939" filterUnits="userSpaceOnUse" color-interpolation-filters="sRGB" x="233.2890625" y="112.14295196533203" width="559.034912109375" height="685.8131713867188"><feFlood flood-opacity="0" result="BackgroundImageFix"/><feColorMatrix in="SourceAlpha" type="matrix" values="0 0 0 0 0 0 0 0 0 0 0 0 0 0 0 0 0 0 127 0"/><feOffset dy="6" dx="1"/><feGaussianBlur stdDeviation="0"/><feColorMatrix type="matrix" values="0 0 0 0 0.772549033164978 0 0 0 0 0.4901960790157318 0 0 0 0 0 0 0 0 1 0"/><feBlend mode="normal" in2="BackgroundImageFix" result="effect1_dropShadow"/><feBlend mode="normal" in="SourceGraphic" in2="effect1_dropShadow" result="shape"/></filter><linearGradient x1="0.5" y1="0" x2="0.5" y2="1" id="master_svg4_43_13796"><stop offset="0%" stop-color="#F9F5E7" stop-opacity="1"/><stop offset="97.85714149475098%" stop-color="#F6CB67" stop-opacity="1"/></linearGradient><linearGradient x1="0.5" y1="0" x2="0.5" y2="1" id="master_svg5_43_14889"><stop offset="3.57142873108387%" stop-color="#FFDB7E" stop-opacity="1"/><stop offset="100%" stop-color="#F6EED2" stop-opacity="1"/></linearGradient><linearGradient x1="0.5" y1="0" x2="0.5" y2="1" id="master_svg6_43_16027"><stop offset="0%" stop-color="#F6CB67" stop-opacity="1"/><stop offset="42.14285612106323%" stop-color="#FFEDB1" stop-opacity="1"/></linearGradient><linearGradient x1="0.5" y1="0" x2="0.5" y2="1" id="master_svg7_43_15555"><stop offset="3.57142873108387%" stop-color="#F0F0F0" stop-opacity="1"/><stop offset="100%" stop-color="#FFDB7E" stop-opacity="1"/></linearGradient></defs><clipPath id="master_svg0_43_26024"><rect x="0" y="0" width="1024" height="1024" rx="0"/></clipPath><g clip-path="url(#master_svg0_43_26024)" style="mix-blend-mode:passthrough"><g><g style="mix-blend-mode:passthrough"><g><path d="M64,213.33365649414063C64,119.07675649414062,140.4101,42.666656494140625,234.667,42.666656494140625L789.333,42.666656494140625C883.59,42.666656494140625,960,119.07675649414062,960,213.33365649414063L960,810.6666564941406C960,904.9236564941406,883.59,981.3336564941407,789.333,981.3336564941407L234.667,981.3336564941407C140.4101,981.3336564941407,64,904.9236564941406,64,810.6666564941406L64,213.33365649414063Z" fill="url(#master_svg1_43_05183)" fill-opacity="1"/><g style="opacity:0.699999988079071;"><path d="M64,218.6666555404663C64,126.98735554046631,138.3207,52.66665554046631,230,52.66665554046631L794,52.66665554046631C885.679,52.66665554046631,960,126.98735554046631,960,218.6666555404663L960,739.9996555404663C960,831.6796555404663,885.679,905.9996555404663,794,905.9996555404663L230,905.9996555404663C138.3207,905.9996555404663,64,831.6796555404663,64,739.9996555404663L64,218.6666555404663Z" fill="#FFF1F1" fill-opacity="1"/></g><path d="M64,213.33365649414063C64,119.07675649414062,140.4101,42.666656494140625,234.667,42.666656494140625L789.333,42.666656494140625C883.59,42.666656494140625,960,119.07675649414062,960,213.33365649414063L960,725.3336564941407C960,819.5896564941406,883.59,895.9996564941406,789.333,895.9996564941406L234.667,895.9996564941406C140.4101,895.9996564941406,64,819.5896564941406,64,725.3336564941407L64,213.33365649414063Z" fill="url(#master_svg2_43_05541)" fill-opacity="1"/><g style="mix-blend-mode:passthrough"><path d="M319.206,42.666656494140625L234.667,42.666656494140625C221.224,42.666656494140625,208.144,44.22081649414063,195.598,47.159266494140624L64,267.8596564941406L64,470.6676564941406L319.206,42.666656494140625ZM102.36500000000001,833.1536564941406C78.3825,803.7606564941407,64,766.2266564941406,64,725.3336564941407L64,694.6866564941406L452.782,42.666656494140625L573.711,42.666656494140625L102.36500000000001,833.1536564941406ZM319.39599999999996,895.9996564941406L234.667,895.9996564941406C222.968,895.9996564941406,211.543,894.8226564941406,200.506,892.5806564941406L707.287,42.66665649414068L789.333,42.666656494140625C801.877,42.666656494140625,814.104,44.01986649414062,825.878,46.58827649414062L319.39599999999996,895.9996564941406ZM573.902,895.9996564941406L452.972,895.9996564941406L923.176,107.42935649414062C946.232,136.52895649414063,960,173.32365649414064,960,213.33365649414063L960,248.48065649414062L573.902,895.9996564941406ZM831.543,890.7406564941406C818.044,894.1746564941407,803.902,895.9996564941406,789.333,895.9996564941406L707.478,895.9996564941406L960,472.4986564941406L960,675.3076564941406L831.543,890.7406564941406Z" fill-rule="evenodd" fill="#F32525" fill-opacity="0.25"/></g><g filter="url(#master_svg3_43_21939)" style="mix-blend-mode:passthrough"><g><g style="mix-blend-mode:passthrough"><path d="M416.2950625,130.24780918579103C414.0370625,118.52590918579102,425.5490625,108.89306918579102,436.6890625,113.18193918579101L709.6770624999999,218.279009185791C720.5960625,222.48300918579102,722.8750625,236.927009185791,713.7810625,244.289009185791L486.4240625,428.32700918579104C477.1440625,435.83900918579104,463.2220625,430.21400918579104,461.7650625,418.364009185791L453.9870625,355.124009185791Q396.20106250000003,362.585009185791,340.6670625,415.34900918579103Q293.3025625,460.350009185791,247.5768625,538.305009185791L247.5635625,538.301009185791C246.2720625,540.658009185791,243.7685625,542.2550091857911,240.8918425,542.2550091857911C236.6929925,542.2550091857911,233.2890625,538.8520091857911,233.2890625,534.653009185791C233.2890625,534.331009185791,233.30896,534.014009185791,233.3476563,533.7040091857909L233.3419189,533.702009185791Q242.6534425,437.977009185791,287.9539625,349.96400918579104Q340.7130625,247.46100918579103,430.83106250000003,205.72790918579102L416.2950625,130.24780918579103Z" fill-rule="evenodd" fill="url(#master_svg4_43_13796)" fill-opacity="1"/></g><g style="mix-blend-mode:passthrough"><path d="M461.7650625,418.364009185791L456.4290625,374.975009185791L453.9870625,355.124009185791Q444.1170625,356.399009185791,434.3130625,358.995009185791Q386.7150625,371.597009185791,340.6670625,415.34900918579103Q296.8011625,457.026009185791,254.34086250000001,526.969009185791Q254.2373625,527.1400091857911,254.1300625,527.317009185791Q253.2928625,528.697009185791,252.4585625,530.085009185791Q250.9144625,532.653009185791,249.3707625,535.261009185791Q248.4729625,536.778009185791,247.5769625,538.306009185791L247.5635625,538.301009185791C246.2721625,540.658009185791,243.7685625,542.2550091857911,240.8918625,542.2550091857911C236.6929525,542.2550091857911,233.2890625,538.8520091857911,233.2890625,534.653009185791C233.2890625,534.331009185791,233.3089973,534.014009185791,233.3476981,533.7040091857909L233.3418853,533.702009185791Q233.5140585,531.932009185791,233.6984915,530.165009185791Q234.0147745,527.135009185791,234.3672325,524.1120091857911Q234.5677525,522.393009185791,234.7800225,520.676009185791Q234.8329725,520.2470091857911,234.8868425,519.817009185791Q245.9483625,431.57500918579103,287.9539625,349.96400918579104Q340.7130625,247.46100918579103,430.83106250000003,205.72790918579102L416.2950625,130.24780918579103C414.0370625,118.52591918579101,425.5490625,108.89306918579102,436.6890625,113.18192918579102L709.6770624999999,218.279009185791C720.5960625,222.48300918579102,722.8750625,236.927009185791,713.7810625,244.289009185791L486.4240625,428.32700918579104C477.1440625,435.83900918579104,463.22306249999997,430.21400918579104,461.7650625,418.364009185791ZM326.8909625,400.850009185791Q294.2046625,431.905009185791,262.5060625,477.596009185791Q276.1155625,416.667009185791,305.7367625,359.117009185791Q355.3520625,262.722009185791,439.2350625,223.87600918579102L453.4280625,217.30400918579102L437.5680625,134.95130918579102L694.7490625,233.963009185791L480.56006249999996,407.342009185791L471.38206249999996,332.713009185791L451.4260625,335.289009185791Q387.1610625,343.586009185791,326.8909625,400.850009185791Z" fill-rule="evenodd" fill="url(#master_svg5_43_14889)" fill-opacity="1"/></g><g style="mix-blend-mode:passthrough"><path d="M965.6767158203124,810.061484387207C963.4187158203125,798.339604387207,974.9297158203125,788.706734387207,986.0687158203125,792.9956143872071L1259.0367158203126,898.093184387207C1269.9547158203125,902.297184387207,1272.2337158203125,916.741184387207,1263.1407158203124,924.102184387207L1035.8007158203125,1108.140184387207C1026.5207158203125,1115.652184387207,1012.6007158203125,1110.0281843872071,1011.1427158203126,1098.177184387207L1003.3657158203125,1034.938184387207Q945.5837158203125,1042.398184387207,890.0537158203125,1095.1621843872072Q842.6926158203125,1140.1641843872071,796.9704158203125,1218.119184387207L796.9569158203125,1218.114184387207C795.6655158203125,1220.471184387207,793.1622158203126,1222.069184387207,790.2855758203125,1222.069184387207C786.0869058203125,1222.069184387207,782.6833496363125,1218.665184387207,782.6833496363125,1214.466184387207C782.6833496363125,1214.145184387207,782.7033677203125,1213.828184387207,782.7420611203125,1213.517184387207L782.7363243203125,1213.515184387207Q792.0470458203125,1117.791184387207,837.3443158203125,1029.7781843872071Q890.0997158203124,927.274184387207,980.2117158203125,885.541484387207L965.6767158203124,810.061484387207Z" fill-rule="evenodd" transform="matrix(-0.9997251629829407,-0.02008981630206108,0.020088303834199905,-0.9997981190681458,1549.243264727524,1599.476459995367)" fill="url(#master_svg6_43_16027)" fill-opacity="1"/></g><g style="mix-blend-mode:passthrough"><path d="M1011.1437158203125,1098.177184387207L1005.8077158203125,1054.7891843872071L1003.3657158203125,1034.938184387207Q993.4967158203125,1036.2121843872071,983.6927158203125,1038.8081843872071Q936.0987158203125,1051.411184387207,890.0537158203125,1095.1621843872072Q846.1909158203125,1136.840184387207,803.7337158203125,1206.783184387207L803.5229158203125,1207.130184387207Q802.6864158203125,1208.5101843872071,801.8515158203124,1209.898184387207Q800.3073158203125,1212.467184387207,798.7641158203126,1215.074184387207Q797.8672158203125,1216.590184387207,796.9704158203125,1218.119184387207L796.9570158203124,1218.114184387207C795.6657158203125,1220.471184387207,793.1623158203125,1222.069184387207,790.2857158203125,1222.069184387207C786.0871058203124,1222.069184387207,782.6834683953125,1218.665184387207,782.6834683953125,1214.466184387207C782.6834683953125,1214.145184387207,782.7034087203125,1213.828184387207,782.7421197203125,1213.517184387207L782.7363030203124,1213.515184387207Q782.9084398203125,1211.745184387207,783.0928798203125,1209.978184387207Q783.4091378203125,1206.948184387207,783.7615558203125,1203.926184387207Q783.9620758203125,1202.206184387207,784.1743058203125,1200.489184387207Q784.2273658203125,1200.060184387207,784.2811358203126,1199.631184387207Q795.3418158203125,1111.389184387207,837.3444158203125,1029.7781843872071Q890.0997158203124,927.274184387207,980.2117158203125,885.541484387207L965.6767158203124,810.061484387207C963.4187158203125,798.3395843872071,974.9297158203125,788.706744387207,986.0687158203125,792.995604387207L1259.0367158203126,898.093184387207C1269.9547158203125,902.2961843872071,1272.2337158203125,916.741184387207,1263.1407158203124,924.102184387207L1035.8007158203125,1108.140184387207C1026.5207158203125,1115.652184387207,1012.6007158203125,1110.0281843872071,1011.1437158203125,1098.177184387207ZM876.2784158203125,1080.663184387207Q843.5946158203125,1111.719184387207,811.8983158203125,1157.410184387207Q825.5069158203125,1096.480184387207,855.1258158203125,1038.931184387207Q904.7377158203125,942.535184387207,988.6157158203125,903.6901843872071L1002.8067158203125,897.1171843872071L986.9477158203125,814.764984387207L1244.1097158203124,913.7771843872071L1029.9367158203124,1087.155184387207L1020.7597158203125,1012.526184387207L1000.8057158203126,1015.102184387207Q936.5447158203125,1023.399184387207,876.2784158203125,1080.663184387207Z" fill-rule="evenodd" transform="matrix(-0.9997251629829407,-0.02008981630206108,0.020088303834199905,-0.9997981190681458,1549.243264727524,1599.476459995367)" fill="url(#master_svg7_43_15555)" fill-opacity="1"/></g></g></g></g></g></g></g></svg>