<?xml version="1.0" encoding="UTF-8"?>
<svg width="416px" height="738px" viewBox="0 0 416 738" version="1.1" xmlns="http://www.w3.org/2000/svg" xmlns:xlink="http://www.w3.org/1999/xlink">
    <!-- Generator: Sketch 46.2 (44496) - http://www.bohemiancoding.com/sketch -->
    <title>CssSprite_player</title>
    <desc>Created with Sketch.</desc>
    <defs>
        <circle id="path-1" cx="45" cy="45" r="45"></circle>
        <circle id="path-2" cx="45" cy="45" r="45"></circle>
        <circle id="path-3" cx="45" cy="45" r="45"></circle>
    </defs>
    <g id="player播放页" stroke="none" stroke-width="1" fill="none" fill-rule="evenodd">
        <g id="切图">
            <g id="CODEMAO" transform="translate(2.000000, 704.000000)" fill="#434656">
                <path d="M208.6875,15.828125 C208.6875,12.4322747 209.932279,9.51563719 212.421875,7.078125 C214.901054,4.64061281 217.880191,3.421875 221.359375,3.421875 C224.796892,3.421875 227.744779,4.65102938 230.203125,7.109375 C232.671887,9.56772062 233.90625,12.5208161 233.90625,15.96875 C233.90625,19.4375173 232.666679,22.3801962 230.1875,24.796875 C227.697904,27.2239705 224.692726,28.4375 221.171875,28.4375 C218.057276,28.4375 215.260429,27.3593858 212.78125,25.203125 C210.05207,22.8176964 208.6875,19.6927277 208.6875,15.828125 Z M212.359375,15.875 C212.359375,18.54168 213.255199,20.7343664 215.046875,22.453125 C216.828134,24.1718836 218.885405,25.03125 221.21875,25.03125 C223.750013,25.03125 225.885408,24.1562587 227.625,22.40625 C229.364592,20.6354078 230.234375,18.4791794 230.234375,15.9375 C230.234375,13.3645705 229.375009,11.208342 227.65625,9.46875 C225.947908,7.71874125 223.833346,6.84375 221.3125,6.84375 C218.802071,6.84375 216.6823,7.71874125 214.953125,9.46875 C213.22395,11.1979253 212.359375,13.3333206 212.359375,15.875 Z" id="O"></path>
                <path d="M191.0625,22.140625 L180.734375,22.140625 L178.046875,28 L174.125,28 L186.0625,2.359375 L197.578125,28 L193.59375,28 L191.0625,22.140625 Z M189.578125,18.71875 L186,10.515625 L182.25,18.71875 L189.578125,18.71875 Z" id="A"></path>
                <polygon id="M" points="138.046875 28 143.125 2.0625 151.40625 20.8125 159.984375 2.0625 164.546875 28 160.8125 28 158.484375 13.4375 151.34375 29.109375 144.40625 13.421875 141.8125 28"></polygon>
                <polygon id="E" points="122.203125 7.296875 112.53125 7.296875 112.53125 13.09375 121.921875 13.09375 121.921875 16.515625 112.53125 16.515625 112.53125 24.578125 122.203125 24.578125 122.203125 28 108.890625 28 108.890625 3.875 122.203125 3.875"></polygon>
                <path d="M75.890625,28 L75.890625,3.875 L80.953125,3.875 C83.3802205,3.875 85.296868,4.11458094 86.703125,4.59375 C88.2135492,5.06250234 89.5833272,5.85936937 90.8125,6.984375 C93.3020958,9.25521969 94.546875,12.2395648 94.546875,15.9375 C94.546875,19.6458519 93.250013,22.6458219 90.65625,24.9375 C89.3541602,26.0833391 87.9895905,26.8802061 86.5625,27.328125 C85.22916,27.7760439 83.3385539,28 80.890625,28 L75.890625,28 Z M79.53125,24.578125 L81.171875,24.578125 C82.8072998,24.578125 84.1666613,24.4062517 85.25,24.0625 C86.3333387,23.6979148 87.3124956,23.1197956 88.1875,22.328125 C89.9791756,20.6927002 90.875,18.5625131 90.875,15.9375 C90.875,13.2916534 89.9895922,11.1458416 88.21875,9.5 C86.624992,8.03124266 84.2760572,7.296875 81.171875,7.296875 L79.53125,7.296875 L79.53125,24.578125 Z" id="D"></path>
                <path d="M37.6875,15.828125 C37.6875,12.4322747 38.9322792,9.51563719 41.421875,7.078125 C43.9010541,4.64061281 46.8801909,3.421875 50.359375,3.421875 C53.7968922,3.421875 56.7447794,4.65102938 59.203125,7.109375 C61.6718873,9.56772062 62.90625,12.5208161 62.90625,15.96875 C62.90625,19.4375173 61.6666791,22.3801962 59.1875,24.796875 C56.6979042,27.2239705 53.6927259,28.4375 50.171875,28.4375 C47.0572761,28.4375 44.2604291,27.3593858 41.78125,25.203125 C39.0520697,22.8176964 37.6875,19.6927277 37.6875,15.828125 Z M41.359375,15.875 C41.359375,18.54168 42.2551994,20.7343664 44.046875,22.453125 C45.8281339,24.1718836 47.885405,25.03125 50.21875,25.03125 C52.7500127,25.03125 54.885408,24.1562587 56.625,22.40625 C58.364592,20.6354078 59.234375,18.4791794 59.234375,15.9375 C59.234375,13.3645705 58.3750086,11.208342 56.65625,9.46875 C54.9479081,7.71874125 52.8333459,6.84375 50.3125,6.84375 C47.8020708,6.84375 45.6823003,7.71874125 43.953125,9.46875 C42.2239497,11.1979253 41.359375,13.3333206 41.359375,15.875 Z" id="O"></path>
                <path d="M26.71875,5.171875 L26.71875,9.484375 C24.6145728,7.72394953 22.4375113,6.84375 20.1875,6.84375 C17.7083209,6.84375 15.6198002,7.73436609 13.921875,9.515625 C12.2135331,11.2864672 11.359375,13.4531122 11.359375,16.015625 C11.359375,18.5468877 12.2135331,20.682283 13.921875,22.421875 C15.6302169,24.161467 17.7239459,25.03125 20.203125,25.03125 C21.4843814,25.03125 22.5729122,24.8229187 23.46875,24.40625 C23.9687525,24.1979156 24.4869765,23.9166684 25.0234375,23.5625 C25.5598985,23.2083316 26.124997,22.7812525 26.71875,22.28125 L26.71875,26.671875 C24.6354063,27.8489642 22.4479281,28.4375 20.15625,28.4375 C16.7083161,28.4375 13.7656372,27.234387 11.328125,24.828125 C8.90102953,22.4010295 7.6875,19.4739755 7.6875,16.046875 C7.6875,12.973943 8.70311484,10.234387 10.734375,7.828125 C13.2343875,4.88019359 16.4687302,3.40625 20.4375,3.40625 C22.6041775,3.40625 24.6979066,3.99478578 26.71875,5.171875 Z" id="C"></path>
            </g>
            <g id="pic_landscape" transform="translate(2.000000, 452.000000)">
                <path d="M292,248 C292,246.895431 292.896916,246 294.007517,246 L409.992483,246 C411.101204,246 412,246.88773 412,248 C412,249.104569 411.103084,250 409.992483,250 L294.007517,250 C292.898796,250 292,249.11227 292,248 Z M228,248 C228,246.895431 228.89473,246 229.996307,246 L286.003693,246 C287.106223,246 288,246.88773 288,248 C288,249.104569 287.10527,250 286.003693,250 L229.996307,250 C228.893777,250 228,249.11227 228,248 Z M204,248 C204,246.895431 204.898212,246 205.990795,246 L222.009205,246 C223.108691,246 224,246.88773 224,248 C224,249.104569 223.101788,250 222.009205,250 L205.990795,250 C204.891309,250 204,249.11227 204,248 Z M0,248 C0,246.895431 0.891685486,246 1.99566213,246 L198.004338,246 C199.106512,246 200,246.88773 200,248 C200,249.104569 199.108315,250 198.004338,250 L1.99566213,250 C0.893488369,250 0,249.11227 0,248 Z" id="Combined-Shape" fill="#3C3849"></path>
                <path d="M4,50 L2.0085302,50 C0.901950359,50 0,50.8954305 0,52 C0,53.1122704 0.899249601,54 2.0085302,54 L4,54 L4,55.9914698 C4,57.0980496 4.8954305,58 6,58 C7.11227036,58 8,57.1007504 8,55.9914698 L8,54 L9.9914698,54 C11.0980496,54 12,53.1045695 12,52 C12,50.8877296 11.1007504,50 9.9914698,50 L8,50 L8,48.0085302 C8,46.9019504 7.1045695,46 6,46 C4.88772964,46 4,46.8992496 4,48.0085302 L4,50 Z" id="Combined-Shape" fill="#3B3748"></path>
                <path d="M39,165 L37.0085302,165 C35.9019504,165 35,165.895431 35,167 C35,168.11227 35.8992496,169 37.0085302,169 L39,169 L39,170.99147 C39,172.09805 39.8954305,173 41,173 C42.1122704,173 43,172.10075 43,170.99147 L43,169 L44.9914698,169 C46.0980496,169 47,168.104569 47,167 C47,165.88773 46.1007504,165 44.9914698,165 L43,165 L43,163.00853 C43,161.90195 42.1045695,161 41,161 C39.8877296,161 39,161.89925 39,163.00853 L39,165 Z" id="Combined-Shape" fill="#3B3748"></path>
                <path d="M355,212 L353.00853,212 C351.90195,212 351,212.895431 351,214 C351,215.11227 351.89925,216 353.00853,216 L355,216 L355,217.99147 C355,219.09805 355.895431,220 357,220 C358.11227,220 359,219.10075 359,217.99147 L359,216 L360.99147,216 C362.09805,216 363,215.104569 363,214 C363,212.88773 362.10075,212 360.99147,212 L359,212 L359,210.00853 C359,208.90195 358.104569,208 357,208 C355.88773,208 355,208.89925 355,210.00853 L355,212 Z" id="Combined-Shape" fill="#3B3748"></path>
                <path d="M404,4 L402.00853,4 C400.90195,4 400,4.8954305 400,6 C400,7.11227036 400.89925,8 402.00853,8 L404,8 L404,9.9914698 C404,11.0980496 404.895431,12 406,12 C407.11227,12 408,11.1007504 408,9.9914698 L408,8 L409.99147,8 C411.09805,8 412,7.1045695 412,6 C412,4.88772964 411.10075,4 409.99147,4 L408,4 L408,2.0085302 C408,0.901950359 407.104569,0 406,0 C404.88773,0 404,0.899249601 404,2.0085302 L404,4 Z" id="Combined-Shape" fill="#3B3748"></path>
                <path d="M68,6 L63.9940603,6 C62.8945138,6 62,6.8954305 62,8 C62,9.11227036 62.8927712,10 63.9940603,10 L68,10 L68,14.0059397 C68,15.1054862 68.8954305,16 70,16 C71.1122704,16 72,15.1072288 72,14.0059397 L72,10 L76.0059397,10 C77.1054862,10 78,9.1045695 78,8 C78,6.88772964 77.1072288,6 76.0059397,6 L72,6 L72,1.99406028 C72,0.894513756 71.1045695,0 70,0 C68.8877296,0 68,0.892771196 68,1.99406028 L68,6 Z" id="Combined-Shape" fill="#3B3748"></path>
                <path d="M249,36 L244.99406,36 C243.894514,36 243,36.8954305 243,38 C243,39.1122704 243.892771,40 244.99406,40 L249,40 L249,44.0059397 C249,45.1054862 249.895431,46 251,46 C252.11227,46 253,45.1072288 253,44.0059397 L253,40 L257.00594,40 C258.105486,40 259,39.1045695 259,38 C259,36.8877296 258.107229,36 257.00594,36 L253,36 L253,31.9940603 C253,30.8945138 252.104569,30 251,30 C249.88773,30 249,30.8927712 249,31.9940603 L249,36 Z" id="Combined-Shape" fill="#3B3748"></path>
                <path d="M381,75 L376.99406,75 C375.894514,75 375,75.8954305 375,77 C375,78.1122704 375.892771,79 376.99406,79 L381,79 L381,83.0059397 C381,84.1054862 381.895431,85 383,85 C384.11227,85 385,84.1072288 385,83.0059397 L385,79 L389.00594,79 C390.105486,79 391,78.1045695 391,77 C391,75.8877296 390.107229,75 389.00594,75 L385,75 L385,70.9940603 C385,69.8945138 384.104569,69 383,69 C381.88773,69 381,69.8927712 381,70.9940603 L381,75 Z" id="Combined-Shape" fill="#3B3748"></path>
                <g id="phone" transform="translate(70.000000, 77.000000)">
                    <path d="M169,137 L15.9908665,137 C7.15935479,137 2.84217094e-14,129.827176 2.84217094e-14,120.999417 L2.84217094e-14,16.0005828 C2.84217094e-14,7.16370492 7.15731469,0 15.9908665,0 L47,0 L47,4 L15.9908665,4 C9.36778135,4 4,9.37151626 4,16.0005828 L4,120.999417 C4,127.622083 9.37253683,133 15.9908665,133 L169,133 L169,137 Z M181,137 L181,133 L257.009134,133 C263.632219,133 269,127.628484 269,120.999417 L269,16.0005828 C269,9.37791748 263.627463,4 257.009134,4 L82,4 L82,-3.33066907e-16 L257.009134,0 C265.840645,0 273,7.17282368 273,16.0005828 L273,120.999417 C273,129.836295 265.842685,137 257.009134,137 L181,137 Z" id="Combined-Shape" fill="#3C3849" fill-rule="nonzero"></path>
                    <rect id="Rectangle-12" fill="#3C3849" x="177" y="133" width="8" height="4" rx="2"></rect>
                    <rect id="Rectangle-12" fill="#3C3849" x="165" y="133" width="8" height="4" rx="2"></rect>
                    <rect id="Rectangle-12" fill="#3C3849" x="78" y="0" width="8" height="4" rx="2"></rect>
                    <rect id="Rectangle-12" fill="#3C3849" x="54" y="0" width="20" height="4" rx="2"></rect>
                    <rect id="Rectangle-12" fill="#3C3849" x="44" y="0" width="6" height="4" rx="2"></rect>
                    <rect id="Rectangle-10" fill="#3C3849" x="225" y="0" width="4" height="137" rx="2"></rect>
                    <rect id="Rectangle-10" fill="#3C3849" x="24" y="0" width="4" height="137" rx="2"></rect>
                    <rect id="Rectangle-10" fill="#3C3849" x="12" y="57" width="4" height="24" rx="2"></rect>
                    <circle id="Oval-8" stroke="#3C3849" stroke-width="4" cx="249" cy="69" r="10"></circle>
                    <polyline id="Line" stroke="#3C3849" stroke-width="4" stroke-linecap="round" stroke-linejoin="round" points="72.5 88.5 112.312058 48.6879415 142.682614 79.0584975 158.516315 63.224797 184.315573 89.0240547"></polyline>
                </g>
            </g>
            <g id="错误提示图标" transform="translate(192.000000, 146.000000)">
                <g id="icn_warning" transform="translate(92.000000, 24.000000)">
                    <path d="M49.6901871,16.9485985 L82.774021,73.9896915 L82.774021,73.9896915 C84.4365685,76.8561527 83.4606037,80.5276396 80.5941425,82.1901871 C79.6795804,82.7206331 78.641093,83 77.5838339,83 L11.4161661,83 L11.4161661,83 C8.10245759,83 5.41616609,80.3137085 5.41616609,77 C5.41616609,75.9427409 5.69553294,74.9042536 6.22597895,73.9896915 L39.3098129,16.9485985 L39.3098129,16.9485985 C40.9723604,14.0821373 44.6438473,13.1061724 47.5103085,14.7687199 C48.4143901,15.2930872 49.1658198,16.0445169 49.6901871,16.9485985 Z" id="Triangle" fill="#FCC35D"></path>
                    <rect id="Rectangle-5" fill="#FFFFFF" x="40.5" y="66" width="8" height="8" rx="4"></rect>
                    <path d="M44.5,35 L44.5,35 L44.5,35 C47.2693033,35 49.5142672,37.2449639 49.5142672,40.0142672 C49.5142672,40.168616 49.5071405,40.3228824 49.4929098,40.4765737 L47.7765946,59.012778 L47.7765946,59.012778 C47.6198754,60.7053458 46.1998079,62 44.5,62 L44.5,62 L44.5,62 C42.8001921,62 41.3801246,60.7053458 41.2234054,59.012778 L39.5070902,40.4765737 L39.5070902,40.4765737 C39.2517653,37.7190657 41.2801856,35.2766822 44.0376935,35.0213574 C44.1913848,35.0071267 44.3456513,35 44.5,35 Z" id="Rectangle-5" fill="#FFFFFF"></path>
                </g>
                <g id="icn_error" transform="translate(0.000000, 24.000000)">
                    <circle id="Oval-6" fill="#F06A60" cx="44.5" cy="45.5" r="37.5"></circle>
                    <path d="M49.9705627,45.3137085 L58.4558441,36.8284271 C60.0179413,35.26633 60.0179413,32.73367 58.4558441,31.1715729 L58.4558441,31.1715729 L58.4558441,31.1715729 C56.893747,29.6094757 54.361087,29.6094757 52.7989899,31.1715729 L52.7989899,31.1715729 L44.3137085,39.6568542 L35.8284271,31.1715729 C34.26633,29.6094757 31.73367,29.6094757 30.1715729,31.1715729 L30.1715729,31.1715729 L30.1715729,31.1715729 C28.6094757,32.73367 28.6094757,35.26633 30.1715729,36.8284271 L30.1715729,36.8284271 L38.6568542,45.3137085 L30.1715729,53.7989899 C28.6094757,55.361087 28.6094757,57.893747 30.1715729,59.4558441 C31.73367,61.0179413 34.26633,61.0179413 35.8284271,59.4558441 L35.8284271,59.4558441 L44.3137085,50.9705627 L52.7989899,59.4558441 C54.361087,61.0179413 56.893747,61.0179413 58.4558441,59.4558441 C60.0179413,57.893747 60.0179413,55.361087 58.4558441,53.7989899 L58.4558441,53.7989899 L49.9705627,45.3137085 Z" id="Combined-Shape" fill="#FFFFFF"></path>
                </g>
                <rect id="Rectangle" fill="#FFFFFF" opacity="0.100000001" x="0" y="19" width="162" height="1"></rect>
                <text id="错误提示图标：" font-family="PingFangSC-Regular, PingFang SC" font-size="12" font-weight="normal" letter-spacing="0.857142687" fill="#96979F">
                    <tspan x="2" y="13">错误提示图标：</tspan>
                </text>
            </g>
            <g id="手机端操作按钮" transform="translate(1.000000, 260.000000)">
                <g id="btn_introduce_mobile_act" transform="translate(83.000000, 110.000000)" stroke="#FFFFFF" opacity="0.5">
                    <circle id="Oval" stroke-width="4" cx="40" cy="40" r="38"></circle>
                    <g id="icn_introduction" stroke-linecap="round" transform="translate(16.000000, 16.000000)" stroke-width="3">
                        <path d="M16.3902439,7.90243902 L0.405154344,23.8875286 C0.181393779,24.1112892 0.274061914,24.292683 0.565799106,24.292683 L9.49967758,24.292683 M16.9756098,17.2682927 L5.09192638,29.151976 C4.86604216,29.3778602 4.92514438,29.5609756 5.26653844,29.5609756 L14.4816735,29.5609756 M9.36585366,33.5 L12.8780488,33.5 M24,0 L29.2682926,5.26829268 M24.1965644,19.3478773 L42.7238676,19.3478773 C43.051486,19.3478773 43.1293344,19.1527815 42.91,18.9248519 L37.2166476,13.0083912 C36.9918272,12.7747608 36.530533,12.5863244 36.2355144,12.5873379 L24.0236914,12.6292891 C23.7066468,12.6303783 23.4455446,12.8841258 23.4391908,13.2183215 C23.4391908,13.2183215 23.288733,24.6294176 22.144734,28.1997846 C21.0007352,31.7701518 14.6341463,37.7560976 14.6341463,37.7560976" id="Shape"></path>
                        <path d="M24,48 L24,24.292683 L47.4736402,24.4420972 C47.802226,24.4441886 47.8991886,24.6218164 47.6690626,24.8608034 L43.3764608,29.3186936 C43.1558036,29.5478472 42.7204034,29.7335308 42.3731646,29.7334198 L24.8305844,29.7278106 M29.5,24.5853658 L29.5,42.1463414 M35.5,24.5853658 L35.5,35.707317" id="Shape"></path>
                    </g>
                </g>
                <g id="btn_introduce_mobile_nor" transform="translate(1.000000, 110.000000)" stroke="#FFFFFF" opacity="0.300000012">
                    <circle id="Oval" stroke-width="4" cx="40" cy="40" r="38"></circle>
                    <g id="icn_introduction" stroke-linecap="round" transform="translate(16.000000, 16.000000)" stroke-width="3">
                        <path d="M16.3902439,7.90243902 L0.405154344,23.8875286 C0.181393779,24.1112892 0.274061914,24.292683 0.565799106,24.292683 L9.49967758,24.292683 M16.9756098,17.2682927 L5.09192638,29.151976 C4.86604216,29.3778602 4.92514438,29.5609756 5.26653844,29.5609756 L14.4816735,29.5609756 M9.36585366,33.5 L12.8780488,33.5 M24,0 L29.2682926,5.26829268 M24.1965644,19.3478773 L42.7238676,19.3478773 C43.051486,19.3478773 43.1293344,19.1527815 42.91,18.9248519 L37.2166476,13.0083912 C36.9918272,12.7747608 36.530533,12.5863244 36.2355144,12.5873379 L24.0236914,12.6292891 C23.7066468,12.6303783 23.4455446,12.8841258 23.4391908,13.2183215 C23.4391908,13.2183215 23.288733,24.6294176 22.144734,28.1997846 C21.0007352,31.7701518 14.6341463,37.7560976 14.6341463,37.7560976" id="Shape"></path>
                        <path d="M24,48 L24,24.292683 L47.4736402,24.4420972 C47.802226,24.4441886 47.8991886,24.6218164 47.6690626,24.8608034 L43.3764608,29.3186936 C43.1558036,29.5478472 42.7204034,29.7335308 42.3731646,29.7334198 L24.8305844,29.7278106 M29.5,24.5853658 L29.5,42.1463414 M35.5,24.5853658 L35.5,35.707317" id="Shape"></path>
                    </g>
                </g>
                <g id="btn_like_mobile_hov" transform="translate(83.000000, 28.000000)">
                    <circle id="Oval" stroke="#FFFFFF" stroke-width="4" opacity="0.300000012" cx="40" cy="40" r="38"></circle>
                    <path d="M40.0030183,29.6930913 L42.6537944,27.0423152 C47.0476756,22.648434 54.1801127,22.6569823 58.5645713,27.0414409 C62.9579696,31.4348392 62.9433888,38.5725259 58.563697,42.9522178 L40.8857519,60.6301629 C40.3982316,61.1176832 39.6067653,61.1166435 39.1202847,60.6301629 L21.4423396,42.9522178 C17.0484585,38.5583366 17.0570067,31.4258995 21.4414653,27.0414409 C25.8348636,22.6480426 32.9725503,22.6626233 37.3522422,27.0423152 L40.0030183,29.6930913 Z" id="Combined-Shape" fill="#F06060"></path>
                </g>
                <g id="btn_like_mobile_nor" transform="translate(1.000000, 28.000000)" opacity="0.300000012">
                    <circle id="Oval" stroke="#FFFFFF" stroke-width="4" cx="40" cy="40" r="38"></circle>
                    <path d="M40.0030183,28.6930913 L42.6537944,26.0423152 C47.0476756,21.648434 54.1801127,21.6569823 58.5645713,26.0414409 C62.9579696,30.4348392 62.9433888,37.5725259 58.563697,41.9522178 L40.8857519,59.6301629 C40.3982316,60.1176832 39.6067653,60.1166435 39.1202847,59.6301629 L21.4423396,41.9522178 C17.0484585,37.5583366 17.0570067,30.4258995 21.4414653,26.0414409 C25.8348636,21.6480426 32.9725503,21.6626233 37.3522422,26.0423152 L40.0030183,28.6930913 Z" id="Combined-Shape" fill="#FFFFFF"></path>
                </g>
                <rect id="Rectangle" fill="#FFFFFF" opacity="0.100000001" x="0" y="19" width="162" height="1"></rect>
                <text id="手机端操作按钮：" font-family="PingFangSC-Regular, PingFang SC" font-size="12" font-weight="normal" letter-spacing="0.857142687" fill="#96979F">
                    <tspan x="2" y="13">手机端操作按钮：</tspan>
                </text>
            </g>
            <g id="PC端操作按钮" transform="translate(2.000000, 146.000000)">
                <g id="btn_introduce_act" transform="translate(68.000000, 62.000000)">
                    <rect id="Rectangle-path" fill="#FFFFFF" fill-rule="nonzero" opacity="0.300000012" x="0" y="0" width="32" height="32" rx="16"></rect>
                    <g id="Group" stroke-linecap="round" transform="translate(4.000000, 4.000000)" stroke="#2E3040" stroke-width="1.5">
                        <path d="M8.19512195,3.95121951 L0.202577172,11.9437643 C0.0906968894,12.0556446 0.137030957,12.1463415 0.282899553,12.1463415 L4.74983879,12.1463415 M8.48780488,8.63414634 L2.54596319,14.575988 C2.43302108,14.6889301 2.46257219,14.7804878 2.63326922,14.7804878 L7.24083677,14.7804878 M4.68292683,16.75 L6.43902439,16.75 M12,0 L14.6341463,2.63414634 M12.0982822,9.67393864 L21.3619338,9.67393864 C21.525743,9.67393864 21.5646672,9.57639076 21.455,9.46242595 L18.6083238,6.50419562 C18.4959136,6.38738038 18.2652665,6.29316222 18.1177572,6.29366896 L12.0118457,6.31464457 C11.8533234,6.31518915 11.7227723,6.44206288 11.7195954,6.60916077 C11.7195954,6.60916077 11.6443665,12.3147088 11.072367,14.0998923 C10.5003676,15.8850759 7.31707317,18.8780488 7.31707317,18.8780488" id="Shape"></path>
                        <path d="M12,24 L12,12.1463415 L23.7368201,12.2210486 C23.901113,12.2220943 23.9495943,12.3109082 23.8345313,12.4304017 L21.6882304,14.6593468 C21.5779018,14.7739236 21.3602017,14.8667654 21.1865823,14.8667099 L12.4152922,14.8639053 M14.75,12.2926829 L14.75,21.0731707 M17.75,12.2926829 L17.75,17.8536585" id="Shape"></path>
                    </g>
                </g>
                <g id="btn_introduce_hov" transform="translate(34.000000, 62.000000)">
                    <rect id="Rectangle-path" fill="#FFFFFF" fill-rule="nonzero" opacity="0.699999988" x="0" y="0" width="32" height="32" rx="16"></rect>
                    <g id="Group" stroke-linecap="round" transform="translate(4.000000, 4.000000)" stroke="#2E3040" stroke-width="1.5">
                        <path d="M8.19512195,3.95121951 L0.202577172,11.9437643 C0.0906968894,12.0556446 0.137030957,12.1463415 0.282899553,12.1463415 L4.74983879,12.1463415 M8.48780488,8.63414634 L2.54596319,14.575988 C2.43302108,14.6889301 2.46257219,14.7804878 2.63326922,14.7804878 L7.24083677,14.7804878 M4.68292683,16.75 L6.43902439,16.75 M12,0 L14.6341463,2.63414634 M12.0982822,9.67393864 L21.3619338,9.67393864 C21.525743,9.67393864 21.5646672,9.57639076 21.455,9.46242595 L18.6083238,6.50419562 C18.4959136,6.38738038 18.2652665,6.29316222 18.1177572,6.29366896 L12.0118457,6.31464457 C11.8533234,6.31518915 11.7227723,6.44206288 11.7195954,6.60916077 C11.7195954,6.60916077 11.6443665,12.3147088 11.072367,14.0998923 C10.5003676,15.8850759 7.31707317,18.8780488 7.31707317,18.8780488" id="Shape"></path>
                        <path d="M12,24 L12,12.1463415 L23.7368201,12.2210486 C23.901113,12.2220943 23.9495943,12.3109082 23.8345313,12.4304017 L21.6882304,14.6593468 C21.5779018,14.7739236 21.3602017,14.8667654 21.1865823,14.8667099 L12.4152922,14.8639053 M14.75,12.2926829 L14.75,21.0731707 M17.75,12.2926829 L17.75,17.8536585" id="Shape"></path>
                    </g>
                </g>
                <g id="btn_introduce_nor" transform="translate(0.000000, 62.000000)">
                    <rect id="Rectangle-path" fill="#FFFFFF" fill-rule="nonzero" opacity="0.5" x="0" y="0" width="32" height="32" rx="16"></rect>
                    <g id="Group" stroke-linecap="round" transform="translate(4.000000, 4.000000)" stroke="#2E3040" stroke-width="1.5">
                        <path d="M8.19512195,3.95121951 L0.202577172,11.9437643 C0.0906968894,12.0556446 0.137030957,12.1463415 0.282899553,12.1463415 L4.74983879,12.1463415 M8.48780488,8.63414634 L2.54596319,14.575988 C2.43302108,14.6889301 2.46257219,14.7804878 2.63326922,14.7804878 L7.24083677,14.7804878 M4.68292683,16.75 L6.43902439,16.75 M12,0 L14.6341463,2.63414634 M12.0982822,9.67393864 L21.3619338,9.67393864 C21.525743,9.67393864 21.5646672,9.57639076 21.455,9.46242595 L18.6083238,6.50419562 C18.4959136,6.38738038 18.2652665,6.29316222 18.1177572,6.29366896 L12.0118457,6.31464457 C11.8533234,6.31518915 11.7227723,6.44206288 11.7195954,6.60916077 C11.7195954,6.60916077 11.6443665,12.3147088 11.072367,14.0998923 C10.5003676,15.8850759 7.31707317,18.8780488 7.31707317,18.8780488" id="Shape"></path>
                        <path d="M12,24 L12,12.1463415 L23.7368201,12.2210486 C23.901113,12.2220943 23.9495943,12.3109082 23.8345313,12.4304017 L21.6882304,14.6593468 C21.5779018,14.7739236 21.3602017,14.8667654 21.1865823,14.8667099 L12.4152922,14.8639053 M14.75,12.2926829 L14.75,21.0731707 M17.75,12.2926829 L17.75,17.8536585" id="Shape"></path>
                    </g>
                </g>
                <g id="btn_liked_hov" transform="translate(102.000000, 28.000000)">
                    <circle id="Oval" fill="#FE7474" cx="16" cy="16" r="16"></circle>
                    <path d="M16.0012073,11.8772365 L17.0615178,10.8169261 C18.8190702,9.05937362 21.6720451,9.06279291 23.4258285,10.8165763 C25.1831878,12.5739357 25.1773555,15.4290104 23.4254788,17.1808871 L16.3592954,24.2470705 C16.1615288,24.4448371 15.8461409,24.4500921 15.6431193,24.2470705 L8.57693585,17.1808871 C6.81938338,15.4233346 6.82280267,12.5703598 8.57658611,10.8165763 C10.3339454,9.05921704 13.1890201,9.06504934 14.9408969,10.8169261 L16.0012073,11.8772365 Z" id="Combined-Shape" stroke="#FFFFFF" stroke-width="2" fill="#FFFFFF"></path>
                </g>
                <g id="btn_liked_nor" transform="translate(68.000000, 28.000000)">
                    <circle id="Oval" fill="#F06060" cx="16" cy="16" r="16"></circle>
                    <path d="M16.0012073,11.8772365 L17.0615178,10.8169261 C18.8190702,9.05937362 21.6720451,9.06279291 23.4258285,10.8165763 C25.1831878,12.5739357 25.1773555,15.4290104 23.4254788,17.1808871 L16.3592954,24.2470705 C16.1615288,24.4448371 15.8461409,24.4500921 15.6431193,24.2470705 L8.57693585,17.1808871 C6.81938338,15.4233346 6.82280267,12.5703598 8.57658611,10.8165763 C10.3339454,9.05921704 13.1890201,9.06504934 14.9408969,10.8169261 L16.0012073,11.8772365 Z" id="Combined-Shape" stroke="#FFFFFF" stroke-width="2" fill="#FFFFFF"></path>
                </g>
                <g id="btn_like_hov" transform="translate(34.000000, 28.000000)">
                    <circle id="Oval" fill="#FFFFFF" opacity="0.7" cx="16" cy="16" r="16"></circle>
                    <path d="M16.0012073,11.8772365 L17.0615178,10.8169261 C18.8190702,9.05937362 21.6720451,9.06279291 23.4258285,10.8165763 C25.1831878,12.5739357 25.1773555,15.4290104 23.4254788,17.1808871 L16.3592954,24.2470705 C16.1615288,24.4448371 15.8461409,24.4500921 15.6431193,24.2470705 L8.57693585,17.1808871 C6.81938338,15.4233346 6.82280267,12.5703598 8.57658611,10.8165763 C10.3339454,9.05921704 13.1890201,9.06504934 14.9408969,10.8169261 L16.0012073,11.8772365 Z" id="Combined-Shape" stroke="#2E3040" stroke-width="2"></path>
                </g>
                <g id="btn_like_nor" transform="translate(0.000000, 28.000000)">
                    <circle id="Oval" fill="#FFFFFF" opacity="0.5" cx="16" cy="16" r="16"></circle>
                    <path d="M16.0012073,11.8772365 L17.0615178,10.8169261 C18.8190702,9.05937362 21.6720451,9.06279291 23.4258285,10.8165763 C25.1831878,12.5739357 25.1773555,15.4290104 23.4254788,17.1808871 L16.3592954,24.2470705 C16.1615288,24.4448371 15.8461409,24.4500921 15.6431193,24.2470705 L8.57693585,17.1808871 C6.81938338,15.4233346 6.82280267,12.5703598 8.57658611,10.8165763 C10.3339454,9.05921704 13.1890201,9.06504934 14.9408969,10.8169261 L16.0012073,11.8772365 Z" id="Combined-Shape" stroke="#2E3040" stroke-width="2"></path>
                </g>
                <rect id="Rectangle" fill="#FFFFFF" opacity="0.100000001" x="0" y="19" width="162" height="1"></rect>
                <text id="PC端操作按钮：" font-family="HelveticaNeue, Helvetica Neue" font-size="12" font-weight="normal" letter-spacing="0.857142687" fill="#96979F">
                    <tspan x="2" y="11">PC</tspan>
                    <tspan x="20.1542854" y="11" font-family="PingFangSC-Regular, PingFang SC">端操作按钮：</tspan>
                </text>
            </g>
            <g id="icn_author" transform="translate(104.000000, 110.000000)" stroke="#FFFFFF" stroke-width="1.5">
                <path d="M2.7535777,14.25 L13.2464223,14.25 C13.1756793,11.7812172 12.0611963,9.5947014 10.38205,8.48782352 L9.60489573,7.97553058 L10.270759,7.32511615 C10.8933687,6.71695168 11.25,5.88775151 11.25,5 C11.25,3.20507456 9.79492544,1.75 8,1.75 C6.20507456,1.75 4.75,3.20507456 4.75,5 C4.75,5.88775151 5.10663132,6.71695168 5.72924104,7.32511615 L6.39510427,7.97553058 L5.61795004,8.48782352 C3.9388037,9.5947014 2.82432066,11.7812172 2.7535777,14.25 Z" id="Combined-Shape"></path>
                <circle id="Oval-3" cx="8" cy="5" r="3.25"></circle>
            </g>
            <g id="btn_replay_act" transform="translate(70.000000, 94.000000)">
                <circle id="Oval" fill="#5899E9" cx="16" cy="16" r="16"></circle>
                <path d="M16,8 C11.581722,8 8,11.581722 8,16 C8,20.418278 11.581722,24 16,24 C20.418278,24 24,20.418278 24,16 C24,14.9966298 23.8152825,14.0364028 23.4779982,13.1514697" id="Oval-5" stroke="#FFFFFF" stroke-width="2" stroke-linecap="round"></path>
                <path d="M16,4.99703014 C16,4.4463856 16.3436702,4.2749362 16.78125,4.625 L20.21875,7.375 C20.6502225,7.72017797 20.6563298,8.2749362 20.21875,8.625 L16.78125,11.375 C16.3497775,11.720178 16,11.5469637 16,11.0029699 L16,4.99703014 Z" id="Rectangle-3" fill="#FFFFFF"></path>
            </g>
            <g id="btn_replay_hov" transform="translate(36.000000, 94.000000)">
                <circle id="Oval" fill="#74B2FE" cx="16" cy="16" r="16"></circle>
                <path d="M16,8 C11.581722,8 8,11.581722 8,16 C8,20.418278 11.581722,24 16,24 C20.418278,24 24,20.418278 24,16 C24,14.9966298 23.8152825,14.0364028 23.4779982,13.1514697" id="Oval-5" stroke="#FFFFFF" stroke-width="2" stroke-linecap="round"></path>
                <path d="M16,4.99703014 C16,4.4463856 16.3436702,4.2749362 16.78125,4.625 L20.21875,7.375 C20.6502225,7.72017797 20.6563298,8.2749362 20.21875,8.625 L16.78125,11.375 C16.3497775,11.720178 16,11.5469637 16,11.0029699 L16,4.99703014 Z" id="Rectangle-3" fill="#FFFFFF"></path>
            </g>
            <g id="btn_replay_nor" transform="translate(2.000000, 94.000000)">
                <circle id="Oval" fill="#60A1F0" cx="16" cy="16" r="16"></circle>
                <path d="M16,8 C11.581722,8 8,11.581722 8,16 C8,20.418278 11.581722,24 16,24 C20.418278,24 24,20.418278 24,16 C24,14.9966298 23.8152825,14.0364028 23.4779982,13.1514697" id="Oval-5" stroke="#FFFFFF" stroke-width="2" stroke-linecap="round"></path>
                <path d="M16,4.99703014 C16,4.4463856 16.3436702,4.2749362 16.78125,4.625 L20.21875,7.375 C20.6502225,7.72017797 20.6563298,8.2749362 20.21875,8.625 L16.78125,11.375 C16.3497775,11.720178 16,11.5469637 16,11.0029699 L16,4.99703014 Z" id="Rectangle-3" fill="#FFFFFF"></path>
            </g>
            <g id="btn_play_act" transform="translate(186.000000, 2.000000)">
                <g id="Oval-6">
                    <use fill="#5899E9" fill-rule="evenodd" xlink:href="#path-1"></use>
                    <circle stroke="#FFFFFF" stroke-width="6" cx="45" cy="45" r="42"></circle>
                </g>
                <path d="M36,32.948278 C36,30.190712 37.8821709,29.1673676 40.2082804,30.6653655 L58.2579775,42.2892415 C60.5821465,43.7859898 60.5840869,46.2113501 58.2579775,47.7092261 L40.2082804,59.3321566 C37.8841113,60.8287832 36,59.8055101 36,57.0490237 L36,32.948278 Z" id="Rectangle-15" fill="#FFFFFF"></path>
            </g>
            <g id="btn_play_hov" transform="translate(94.000000, 2.000000)">
                <g id="Oval-6">
                    <use fill="#74B2FE" fill-rule="evenodd" xlink:href="#path-2"></use>
                    <circle stroke="#FFFFFF" stroke-width="6" cx="45" cy="45" r="42"></circle>
                </g>
                <path d="M36,32.948278 C36,30.190712 37.8821709,29.1673676 40.2082804,30.6653655 L58.2579775,42.2892415 C60.5821465,43.7859898 60.5840869,46.2113501 58.2579775,47.7092261 L40.2082804,59.3321566 C37.8841113,60.8287832 36,59.8055101 36,57.0490237 L36,32.948278 Z" id="Rectangle-15" fill="#FFFFFF"></path>
            </g>
            <g id="btn_play_nor" transform="translate(2.000000, 2.000000)">
                <g id="Oval-6">
                    <use fill="#60A1F0" fill-rule="evenodd" xlink:href="#path-3"></use>
                    <circle stroke="#FFFFFF" stroke-width="6" cx="45" cy="45" r="42"></circle>
                </g>
                <path d="M36,32.948278 C36,30.190712 37.8821709,29.1673676 40.2082804,30.6653655 L58.2579775,42.2892415 C60.5821465,43.7859898 60.5840869,46.2113501 58.2579775,47.7092261 L40.2082804,59.3321566 C37.8841113,60.8287832 36,59.8055101 36,57.0490237 L36,32.948278 Z" id="Rectangle-15" fill="#FFFFFF"></path>
            </g>
        </g>
    </g>
</svg>