<?xml version="1.0" encoding="UTF-8"?>
<svg width="222px" height="290px" viewBox="0 0 222 290" version="1.1" xmlns="http://www.w3.org/2000/svg" xmlns:xlink="http://www.w3.org/1999/xlink">
    <!-- Generator: Sketch 50.2 (55047) - http://www.bohemiancoding.com/sketch -->
    <title>CSS Sprite_recording</title>
    <desc>Created with Sketch.</desc>
    <defs>
        <polyline id="path-1" points="81 59.4 27 59.4 28.8 37.8"></polyline>
    </defs>
    <g id="Page-1" stroke="none" stroke-width="1" fill="none" fill-rule="evenodd">
        <g id="切图">
            <g id="icn_close" transform="translate(2.000000, 252.000000)" fill="#FFFFFF">
                <path d="M18,16.5857864 L25.0710678,9.51471863 C25.4615921,9.12419433 26.0947571,9.12419433 26.4852814,9.51471863 C26.8758057,9.90524292 26.8758057,10.5384079 26.4852814,10.9289322 L19.4142136,18 L26.4852814,25.0710678 C26.8758057,25.4615921 26.8758057,26.0947571 26.4852814,26.4852814 C26.0947571,26.8758057 25.4615921,26.8758057 25.0710678,26.4852814 L18,19.4142136 L10.9289322,26.4852814 C10.5384079,26.8758057 9.90524292,26.8758057 9.51471863,26.4852814 C9.12419433,26.0947571 9.12419433,25.4615921 9.51471863,25.0710678 L16.5857864,18 L9.51471863,10.9289322 C9.12419433,10.5384079 9.12419433,9.90524292 9.51471863,9.51471863 C9.90524292,9.12419433 10.5384079,9.12419433 10.9289322,9.51471863 L18,16.5857864 Z" id="Combined-Shape"></path>
            </g>
            <g id="icn_play" transform="translate(160.000000, 222.000000)" stroke="#FFFFFF" stroke-width="5.35714286">
                <path d="M16.9642857,11.0305081 L16.9642857,38.1879231 C16.9642857,39.9902086 17.2049154,40.1182572 18.6844825,39.1134899 L38.86717,25.4075184 C39.757656,24.8027934 39.7573043,24.415399 38.86717,23.8109128 L18.6844825,10.1049413 C17.2044121,9.09983222 16.9642857,9.22764233 16.9642857,11.0305081 Z" id="Rectangle-53"></path>
            </g>
            <g id="icn_redo" transform="translate(108.000000, 222.000000)" stroke="#FFFFFF" stroke-width="5.35714286">
                <path d="M25,7.14285714 C15.1377723,7.14285714 7.14285714,15.1377723 7.14285714,25 C7.14285714,34.8622277 15.1377723,42.8571429 25,42.8571429 L25,42.8571429 C34.8622277,42.8571429 42.8571429,34.8622277 42.8571429,25" id="Oval-22" stroke-linecap="round"></path>
                <path d="M25.8928571,3.66999004 L25.8928571,10.0777275 L30.4109851,6.87385878 L25.8928571,3.66999004 Z" id="Rectangle-53"></path>
            </g>
            <g id="icn_contitune" transform="translate(92.000000, 222.000000)" fill="#7A7A7A" opacity="0.600000024">
                <path d="M1.75,3.59930697 C1.75,1.61146462 3.04936716,0.954637097 4.653079,2.13287437 L11.8240611,7.40135104 C13.025799,8.28426048 13.0182385,9.72129415 11.8240611,10.598649 L4.653079,15.8671256 C3.04975274,17.0450796 1.75,16.3867791 1.75,14.400693 L1.75,3.59930697 Z" id="Rectangle-88"></path>
            </g>
            <g id="icn_translate_down" transform="translate(62.000000, 222.000000)" fill="#60A1F0" fill-rule="nonzero">
                <path d="M4.22808962,7 C4.48520714,6.71365046 4.79365404,6.48253839 5.12530148,6.34987941 L12.3746985,2.40012059 C13.2839508,2.03641969 14,2.52989567 14,3.49194574 L14,24.5080543 C14,25.4525873 13.2723277,25.9589311 12.3746985,25.5998794 L5.12530148,21.6501206 C4.78885231,21.5155409 4.4788567,21.2852541 4.22180448,21 L1.74817398,21 C0.782684152,21 0,20.2107934 0,19.2661386 L0,8.73386145 C0,7.77627621 0.774655581,7 1.74817398,7 L4.22808962,7 Z M5.77523517,7.97471362 C5.54521344,8.06672231 5.25,8.50136183 5.25,8.73386145 L5.25,19.2661386 C5.25,19.5113625 5.53339961,19.9285522 5.77523517,20.0252864 L12.25,23.6651923 L12.25,4.33480768 L5.77523517,7.97471362 Z M1.75,19.2661386 C1.74960907,19.2499034 3.5,19.25 3.5,19.25 L3.5,8.75 L1.75,8.75 L1.75,19.2661386 Z M17.2084097,9.87371989 C16.7527831,9.712679 16.5139742,9.21277125 16.6750151,8.75714467 C16.836056,8.30151809 17.3359637,8.0627092 17.7915903,8.22375009 C20.2191939,9.08178482 21.875,11.3834434 21.875,14 C21.875,16.6165566 20.2191939,18.9182152 17.7915903,19.7762499 C17.3359637,19.9372908 16.836056,19.6984819 16.6750151,19.2428553 C16.5139742,18.7872288 16.7527831,18.287321 17.2084097,18.1262801 C18.9420188,17.5135372 20.125,15.8691304 20.125,14 C20.125,12.1308696 18.9420188,10.4864628 17.2084097,9.87371989 Z M17.3552261,4.50811731 C16.8786375,4.42816089 16.5571035,3.97699199 16.63706,3.50040336 C16.7170164,3.02381474 17.1681853,2.70228081 17.6447739,2.78223723 C23.0859459,3.69509293 27.125,8.42368104 27.125,14 C27.125,19.576319 23.0859459,24.3049071 17.6447739,25.2177628 C17.1681853,25.2977192 16.7170164,24.9761853 16.63706,24.4995966 C16.5571035,24.023008 16.8786375,23.5718391 17.3552261,23.4918827 C21.9567757,22.7198889 25.375,18.7181166 25.375,14 C25.375,9.28188338 21.9567757,5.28011106 17.3552261,4.50811731 Z" id="Combined-Shape"></path>
            </g>
            <g id="icn_translate_hov" transform="translate(32.000000, 222.000000)" fill="#DDDDDD" fill-rule="nonzero">
                <path d="M4.22808962,7 C4.48520714,6.71365046 4.79365404,6.48253839 5.12530148,6.34987941 L12.3746985,2.40012059 C13.2839508,2.03641969 14,2.52989567 14,3.49194574 L14,24.5080543 C14,25.4525873 13.2723277,25.9589311 12.3746985,25.5998794 L5.12530148,21.6501206 C4.78885231,21.5155409 4.4788567,21.2852541 4.22180448,21 L1.74817398,21 C0.782684152,21 0,20.2107934 0,19.2661386 L0,8.73386145 C0,7.77627621 0.774655581,7 1.74817398,7 L4.22808962,7 Z M5.77523517,7.97471362 C5.54521344,8.06672231 5.25,8.50136183 5.25,8.73386145 L5.25,19.2661386 C5.25,19.5113625 5.53339961,19.9285522 5.77523517,20.0252864 L12.25,23.6651923 L12.25,4.33480768 L5.77523517,7.97471362 Z M1.75,19.2661386 C1.74960907,19.2499034 3.5,19.25 3.5,19.25 L3.5,8.75 L1.75,8.75 L1.75,19.2661386 Z M17.2084097,9.87371989 C16.7527831,9.712679 16.5139742,9.21277125 16.6750151,8.75714467 C16.836056,8.30151809 17.3359637,8.0627092 17.7915903,8.22375009 C20.2191939,9.08178482 21.875,11.3834434 21.875,14 C21.875,16.6165566 20.2191939,18.9182152 17.7915903,19.7762499 C17.3359637,19.9372908 16.836056,19.6984819 16.6750151,19.2428553 C16.5139742,18.7872288 16.7527831,18.287321 17.2084097,18.1262801 C18.9420188,17.5135372 20.125,15.8691304 20.125,14 C20.125,12.1308696 18.9420188,10.4864628 17.2084097,9.87371989 Z M17.3552261,4.50811731 C16.8786375,4.42816089 16.5571035,3.97699199 16.63706,3.50040336 C16.7170164,3.02381474 17.1681853,2.70228081 17.6447739,2.78223723 C23.0859459,3.69509293 27.125,8.42368104 27.125,14 C27.125,19.576319 23.0859459,24.3049071 17.6447739,25.2177628 C17.1681853,25.2977192 16.7170164,24.9761853 16.63706,24.4995966 C16.5571035,24.023008 16.8786375,23.5718391 17.3552261,23.4918827 C21.9567757,22.7198889 25.375,18.7181166 25.375,14 C25.375,9.28188338 21.9567757,5.28011106 17.3552261,4.50811731 Z" id="Combined-Shape"></path>
            </g>
            <g id="icn_translate_nor" transform="translate(2.000000, 222.000000)" fill="#BBBBBB" fill-rule="nonzero">
                <path d="M4.22808962,7 C4.48520714,6.71365046 4.79365404,6.48253839 5.12530148,6.34987941 L12.3746985,2.40012059 C13.2839508,2.03641969 14,2.52989567 14,3.49194574 L14,24.5080543 C14,25.4525873 13.2723277,25.9589311 12.3746985,25.5998794 L5.12530148,21.6501206 C4.78885231,21.5155409 4.4788567,21.2852541 4.22180448,21 L1.74817398,21 C0.782684152,21 0,20.2107934 0,19.2661386 L0,8.73386145 C0,7.77627621 0.774655581,7 1.74817398,7 L4.22808962,7 Z M5.77523517,7.97471362 C5.54521344,8.06672231 5.25,8.50136183 5.25,8.73386145 L5.25,19.2661386 C5.25,19.5113625 5.53339961,19.9285522 5.77523517,20.0252864 L12.25,23.6651923 L12.25,4.33480768 L5.77523517,7.97471362 Z M1.75,19.2661386 C1.74960907,19.2499034 3.5,19.25 3.5,19.25 L3.5,8.75 L1.75,8.75 L1.75,19.2661386 Z M17.2084097,9.87371989 C16.7527831,9.712679 16.5139742,9.21277125 16.6750151,8.75714467 C16.836056,8.30151809 17.3359637,8.0627092 17.7915903,8.22375009 C20.2191939,9.08178482 21.875,11.3834434 21.875,14 C21.875,16.6165566 20.2191939,18.9182152 17.7915903,19.7762499 C17.3359637,19.9372908 16.836056,19.6984819 16.6750151,19.2428553 C16.5139742,18.7872288 16.7527831,18.287321 17.2084097,18.1262801 C18.9420188,17.5135372 20.125,15.8691304 20.125,14 C20.125,12.1308696 18.9420188,10.4864628 17.2084097,9.87371989 Z M17.3552261,4.50811731 C16.8786375,4.42816089 16.5571035,3.97699199 16.63706,3.50040336 C16.7170164,3.02381474 17.1681853,2.70228081 17.6447739,2.78223723 C23.0859459,3.69509293 27.125,8.42368104 27.125,14 C27.125,19.576319 23.0859459,24.3049071 17.6447739,25.2177628 C17.1681853,25.2977192 16.7170164,24.9761853 16.63706,24.4995966 C16.5571035,24.023008 16.8786375,23.5718391 17.3552261,23.4918827 C21.9567757,22.7198889 25.375,18.7181166 25.375,14 C25.375,9.28188338 21.9567757,5.28011106 17.3552261,4.50811731 Z" id="Combined-Shape"></path>
            </g>
            <g id="icn_translating" transform="translate(112.000000, 112.000000)" fill="#FFFFFF" fill-opacity="0.3" fill-rule="nonzero" stroke="#FFFFFF" stroke-opacity="0.2" stroke-width="3.6">
                <path d="M32.4,54 L32.4,52.2 L34.2,52.2 L35.9963418,52.2 C40.5303594,52.2 41.8250616,49.7825885 39.3141897,46.0162806 L28.6984853,30.0927241 C26.6476671,27.0164968 23.7510026,27.0184922 21.7015147,30.0927241 L11.0858103,46.0162806 C8.57662466,49.7800592 9.8739618,52.2 14.4036582,52.2 L18,52.2 L18,54 C18,73.882251 34.117749,90 54,90 C57.9764502,90 61.2,86.7764502 61.2,82.8 C61.2,78.8235498 57.9764502,75.6 54,75.6 C42.0706494,75.6 32.4,65.9293506 32.4,54 Z M75.5995296,53.8560624 L75.6113733,55.6678289 L72.0036582,55.6678289 C67.4739618,55.6678289 66.1766247,58.0877698 68.6858103,61.8515483 L79.3015147,77.7751048 C81.3510026,80.8493367 84.2476671,80.8513321 86.2984853,77.7751048 L96.9141897,61.8515483 C99.4250616,58.0852404 98.1303594,55.6678289 93.5963418,55.6678289 L90.0059246,55.6678289 L89.9997844,53.8739902 C89.9319102,34.0448346 73.8353018,18 54,18 C50.0235498,18 46.8,21.2235498 46.8,25.2 C46.8,29.1764502 50.0235498,32.4 54,32.4 C65.8756439,32.4 75.5219412,41.9871291 75.5995296,53.8560624 Z"></path>
            </g>
            <g id="icn_confirm" transform="translate(112.000000, 2.000000)" stroke-linecap="round" stroke-linejoin="round">
                <g transform="translate(54.000000, 48.600000) rotate(-50.000000) translate(-54.000000, -48.600000) ">
                    <use stroke="#60A1F0" stroke-width="21.6" xlink:href="#path-1"></use>
                    <use stroke="#A0C7F6" stroke-width="10.8" xlink:href="#path-1"></use>
                </g>
            </g>
            <g id="icn_stop" transform="translate(2.000000, 112.000000)" fill="#F06060" fill-opacity="0.6" stroke="#F06060" stroke-width="5.4">
                <rect x="31.5" y="31.5" width="45" height="45" rx="10.8"></rect>
            </g>
            <g id="icn_mic" transform="translate(2.000000, 2.000000)" stroke="#60A1F0" stroke-width="5.4">
                <rect id="Rectangle-74" x="44.1" y="94.5" width="19.8" height="1" rx="0.5"></rect>
                <rect id="Rectangle-73" x="54" y="87.3" width="1" height="3.6"></rect>
                <path d="M28.8,59.4 C28.8,73.3175757 40.0824243,84.6 54,84.6 L54,84.6 C67.9175757,84.6 79.2,73.3175757 79.2,59.4" id="Oval-28" stroke-linecap="round"></path>
                <rect id="Rectangle-72" fill-opacity="0.6" fill="#60A1F0" x="40.5" y="15.3" width="27" height="57.6" rx="13.5"></rect>
            </g>
        </g>
    </g>
</svg>