<svg width="101" height="54" viewBox="0 0 101 54" xmlns="http://www.w3.org/2000/svg"><title>variable-icon_0002_</title><g fill="none" fill-rule="evenodd"><path d="M29.243 45.567c-2.78-1.61-11.613-8.03-12.473-9.057-.44-.544.08-.544 2.3-.02 3.217.765 8.374.905 11.852.302 6.316-1.087 12.452-4.287 16.85-8.796 1.42-1.47 3.038-3.482 4.417-5.535.78-1.146 1.058-.804.66.847-1.5 6.32-7.297 12.7-18.21 20.046-2.92 1.952-4.118 2.677-4.438 2.677-.08 0-.52-.222-.96-.463z" fill="#E54040"/><path d="M12.493 30.794c-1.24-.302-1.42-.403-1.96-1.208-2.138-3.12-2.997-5.514-3.137-8.674-.2-5.092 1.4-8.836 4.937-11.553 1.9-1.43 4.017-2.074 6.476-1.913 4.396.262 7.175 2.214 10.073 7.064l1.42 2.356 1.238-2.073c1.6-2.677 3.14-4.57 4.48-5.494 2.557-1.773 6.135-2.376 8.933-1.51 2.3.683 2.52 1.066.72 1.307-.56.06-1.56.262-2.18.443-1.098.302-1.138.342-1.098.946.06.986-.32.845-.58-.2-.26-1.068-.62-1.43-1.6-1.61-1.498-.283-2.897 1.488-2.258 2.857.16.322.62.744 1.04.946.4.2.7.46.62.562-.18.302-.54.2-1.18-.302l-.6-.483-.82.584C36 13.546 33.72 16 32.822 17.35c-.38.563-.82 1.51-1 2.113-.62 2.133-2.078 4.63-3.677 6.32-1.52 1.59-3.318 2.998-4.597 3.602-2.998 1.37-4.717 1.75-7.635 1.73-1.14-.02-2.678-.16-3.417-.32zm6.176-11.23c1.978-.987 3.037-2.98 2.817-5.355-.28-3.2-3.298-5.475-6.396-4.81-2.597.543-4.336 2.676-4.336 5.333 0 2.576 1.64 4.73 4.057 5.353 1.04.262 2.7.04 3.86-.523z" fill="#FE9494"/><path d="M91.386 43.192c-1.78-.946-5.357-3.4-7.256-4.97l-1.7-1.39-2.398 1.75c-4.057 2.92-6.576 4.55-7.295 4.69-1.16.242-2.02-.18-4.238-2.052-2.36-1.993-2.68-2.516-2.54-4.086.12-1.127-.26-.705 6.277-7.045l2.22-2.134-1.24-1.75c-1.5-2.114-3.498-5.314-4.518-7.247-2.18-4.106-1.76-5.515 2.258-7.448 1.7-.825 2.26-1.006 3.158-1.006 1.42 0 1.74.262 3.838 3.04 1.66 2.233 4.897 6.118 5.077 6.118.06 0 2.08-1.892 4.478-4.187 4.757-4.61 5.137-4.85 6.716-4.367.42.12 1.98 1.026 3.418 1.992 2.618 1.752 2.658 1.772 2.978 2.858.3.906.32 1.208.1 1.933-.54 1.83-2.618 4.61-6.196 8.272l-2.32 2.375.6.503c.34.262 2.16 1.59 4.078 2.958 3.758 2.658 4.018 2.96 4.018 4.61-.02.484-.12 1.107-.26 1.39-.26.563-4.397 4.447-5.636 5.313-1.06.704-2.12.664-3.618-.12zm6.316-6.602c-.02-.06-.74-.624-1.64-1.227-2.018-1.37-6.775-4.972-7.854-5.938l-.8-.724 2.34-2.253c3.217-3.12 5.555-5.737 6.895-7.71.62-.925 1.1-1.71 1.04-1.75-.04-.02-1-.664-2.14-1.41l-2.058-1.368-2.18 2.073c-1.198 1.147-3.597 3.44-5.316 5.092l-3.14 3.02-1.178-1.31c-1.86-2.032-4.938-5.756-6.357-7.668l-1.28-1.75-1.658.824c-.92.464-1.66.907-1.66 1.008 0 .1.44 1.046 1 2.113 1.18 2.336 3.258 5.596 5.457 8.555.88 1.187 1.52 2.254 1.42 2.334-.1.08-2.2 2.093-4.678 4.447-2.478 2.355-4.577 4.368-4.657 4.428-.16.14 2.258 2.315 2.797 2.556.26.102 3.958-2.374 7.876-5.292 1.4-1.046 2.598-1.892 2.658-1.892.08 0 .92.684 1.86 1.51 2.398 2.113 4.417 3.622 6.816 5.072l2.08 1.247 2.177-1.932c1.2-1.066 2.18-1.992 2.18-2.053z" fill="#323232"/><path d="M29.682 49.25c-.28-.22-.56-.402-.64-.402-.06 0-.42-.222-.78-.504-.36-.28-.758-.503-.878-.503s-.52-.26-.88-.582c-.36-.322-1.06-.785-1.56-1.047-.5-.26-1.778-1.126-2.837-1.93-1.06-.806-2-1.47-2.06-1.47-.14 0-1.378-.886-1.938-1.41-.2-.16-.62-.523-.96-.804-3.378-2.818-4.458-3.824-6.057-5.656-.52-.604-1.3-1.49-1.74-1.993-.438-.483-.798-.966-.798-1.086 0-.1-.24-.503-.54-.885-.32-.403-.7-.966-.86-1.268-.86-1.57-1.398-2.657-1.398-2.818 0-.1-.18-.584-.42-1.067-.22-.504-.44-1.107-.48-1.37-.04-.26-.14-.824-.22-1.267-.16-.986-.18-4.97-.02-5.937.16-.967.72-3.04.94-3.524.1-.22.32-.724.5-1.107.86-1.933 2.358-3.865 4.197-5.395.84-.684 3.838-2.254 4.577-2.354.22-.04.74-.14 1.12-.2.9-.162 3.698-.162 4.598-.02.38.06.96.16 1.28.2.34.06.78.182.998.282 1.9.866 2.54 1.228 3.418 1.892 1.46 1.127 3.08 2.637 3.1 2.898 0 .12.218.423.518.685.42.422.52.443.68.2.28-.462 1.24-1.61 1.78-2.072.26-.242.678-.644.918-.906.24-.242.54-.443.64-.443.1 0 .36-.202.58-.423.2-.242.56-.503.78-.604.22-.1.54-.262.7-.362 2.157-1.228 5.895-1.812 8.594-1.33.38.062.9.162 1.12.203.678.1 3.797 1.69 4.336 2.194.28.262.78.665 1.14.926.34.242.84.785 1.1 1.188.26.402.838 1.248 1.298 1.912.44.644.94 1.47 1.12 1.83.32.706 1 3.12 1.22 4.33.16.965.16 4.95-.02 5.936-.08.443-.18 1.006-.22 1.268-.04.262-.26.865-.48 1.37-.24.482-.42.965-.42 1.065 0 .543-2.8 5.152-3.858 6.36-.18.22-.82.945-1.4 1.61-1.638 1.87-2.698 2.878-6.136 5.736-.34.28-.76.644-.96.805-.56.524-1.798 1.41-1.938 1.41-.06 0-1 .664-2.06 1.47-1.058.804-2.337 1.67-2.837 1.93-.5.263-1.2.726-1.56 1.048-.36.322-.74.583-.86.583s-.5.202-.84.464c-.34.242-.78.544-.96.644-.178.12-.518.322-.738.443-.34.222-.48.182-.9-.14zm1.32-3.965c1.26-.644 6.696-4.408 9.454-6.52 6.056-4.67 9.974-9.4 11.593-14.03.5-1.428.54-1.75.5-4.367-.04-3.26-.12-3.804-.68-5.434-.92-2.717-3.24-5.354-5.498-6.26-.4-.16-.96-.402-1.22-.543-.3-.14-1.378-.24-2.797-.24-1.92 0-2.56.08-3.678.463-2.818.986-4.337 2.455-6.776 6.54-.778 1.31-1.518 2.335-1.638 2.295-.12-.04-.88-1.187-1.7-2.556-2.877-4.79-5.356-6.52-9.753-6.783-1.6-.1-2.06-.04-3.52.422-.92.282-1.898.705-2.198.926-.28.22-.56.402-.64.402-.28 0-2.238 2.174-2.818 3.12-1.94 3.18-2.458 8.413-1.2 12.016 1.6 4.61 5.338 9.137 11.514 13.948 3.658 2.837 9.694 6.923 10.254 6.943.08 0 .44-.14.8-.342z" fill="#010101"/><path d="M21.447 37.355c-.54-.08-1.88-.362-2.938-.604-1.9-.42-1.98-.482-3.36-1.75-1.758-1.61-4.077-4.468-3.837-4.71.1-.1.72-.04 1.46.142 2.578.603 6.815.26 9.134-.725 1.92-.825 2.36-1.067 3.538-1.912 2.698-1.892 5.057-5.193 5.976-8.332.18-.604.62-1.55 1-2.114.86-1.33 3.56-4.207 4.598-4.932l.82-.563.6.483c.4.322.86.483 1.398.483 1.4 0 2.18-.905 2.2-2.495 0-.765.02-.785.958-1.067.52-.14 1.62-.382 2.46-.543l1.518-.262 1.22.946c1.958 1.49 3.357 3.4 4.077 5.534.54 1.55.62 2.154.68 4.73.04 2.113.04 2.113-.66 3.22-4.798 7.467-12.753 12.82-21.228 14.29-2.5.423-7.576.523-9.615.18z" fill="#F85F5F"/><g fill="#FFF"><path d="M28.443 53.82c-.44-.142-1.02-.384-1.3-.545-.28-.16-.74-.422-1.038-.603-2.18-1.228-6.896-4.408-10.294-6.924-.68-.503-1.3-.926-1.4-.926-.08 0-.318-.2-.558-.463-.22-.262-1.18-1.128-2.14-1.933-1.778-1.49-5.955-5.837-5.955-6.2 0-.1-.22-.4-.5-.663-.28-.262-.5-.544-.5-.624 0-.08-.46-.825-1-1.65-.56-.826-1-1.59-1-1.69 0-.102-.16-.404-.338-.665-.2-.282-.36-.624-.4-.765-.02-.16-.16-.423-.32-.604-.52-.584-1.3-3.582-1.54-5.957-.5-4.792.28-11.13 1.6-13.003.24-.342.4-.685.34-.745-.08-.06.1-.402.36-.765.278-.342.498-.744.498-.845 0-.12.14-.322.32-.483.16-.142.48-.585.68-.987.48-.926 1.88-2.436 2.738-2.94.36-.2.66-.442.66-.522 0-.1.2-.26.46-.36.24-.122.62-.323.84-.444 1.258-.825 1.978-1.188 2.917-1.47.6-.18 1.26-.402 1.48-.503.22-.08 1.438-.28 2.698-.402 2.38-.26 6.977-.02 7.756.383.18.1 1.34.564 2.54 1.047 1.218.463 2.337.966 2.517 1.107.16.16.38.282.48.282.1 0 .38.2.64.44.5.464.64.424 1.958-.44.34-.223.82-.484 1.08-.605.26-.12.7-.383 1-.564C35.66.464 40.696-.3 44.733.14c1.26.122 2.48.323 2.7.403.22.1.878.322 1.478.504.94.28 1.66.644 2.92 1.47.22.12.6.32.86.442.24.1.438.26.438.36 0 .08.3.323.66.524.86.503 2.26 2.013 2.738 2.94.2.4.52.844.68.985.18.16.32.36.32.482 0 .1.22.503.52.886.28.362.44.664.38.664-.08 0 .06.342.3.765.26.402.62 1.388.84 2.153.22.785.478 1.73.598 2.113.36 1.087.22 9.42-.18 11.07-.48 2.033-.9 3.28-1.2 3.663-.16.18-.3.463-.34.624-.02.16-.18.523-.378.805-.18.302-.34.584-.34.664 0 .06-.44.804-1 1.63-.54.825-1 1.57-1 1.65 0 .08-.22.362-.5.624s-.498.563-.498.664c0 .362-4.178 4.71-5.957 6.2-.958.804-1.918 1.67-2.138 1.93-.24.263-.48.464-.56.464-.1 0-.72.423-1.4.926-3.476 2.576-8.374 5.857-10.332 6.944-.32.18-.78.463-1.04.624-.92.603-3.578.885-4.857.503zm5.797-7.066c10.773-6.963 16.79-12.76 19.808-19.1 1.12-2.375 1.48-3.764 1.62-6.4.34-6.28-1.92-11.25-6.597-14.45-3.957-2.718-10.013-2.638-14.21.18-1.34.926-3 2.516-4.118 4.005l-.5.663-.8-1.167c-1.58-2.315-4.697-4.488-7.455-5.213-5.357-1.41-10.634.342-13.972 4.65-2.378 3.1-3.438 6.863-3.198 11.33.14 2.597.5 4.026 1.54 6.22 1.438 3.06 3.437 5.837 6.415 8.896 2.9 2.998 10.174 8.472 15.85 11.914l1.6.946.92-.523c.5-.282 1.898-1.168 3.098-1.953z"/><path d="M14.81 20.49c-1.778-.464-3.597-2.175-4.176-3.885-.4-1.248-.3-3.18.22-4.287.54-1.107 1.938-2.456 3.058-2.96 1.06-.482 2.738-.563 3.937-.2.44.12 1.24.583 1.778.986 3.418 2.657 2.92 7.91-.96 9.822-1.158.563-2.817.785-3.857.523zM39.037 12.94c-2.08-.944-2.14-3.24-.12-4.426 1.66-.966 3.718.764 3.338 2.797-.24 1.31-2.02 2.195-3.218 1.63zM91.286 39.73c-2.42-1.45-4.438-2.958-6.836-5.072-.94-.825-1.78-1.51-1.86-1.51-.06 0-1.258.846-2.657 1.893-2.88 2.134-7.496 5.354-7.716 5.354-.22 0-3.398-2.636-3.398-2.817 0-.06 1.218-1.29 2.698-2.718 1.48-1.43 3.617-3.482 4.737-4.59l2.06-2.012-1.58-2.134c-3.18-4.287-6.597-10.123-6.337-10.787.06-.16.92-.705 1.9-1.188l1.798-.927 1.46 1.973c1.438 1.932 4.417 5.535 6.315 7.688l.98 1.107 3.14-3.018c1.718-1.67 4.117-3.945 5.316-5.092l2.18-2.073 2.317 1.55c1.64 1.087 2.3 1.63 2.22 1.83-.28.726-2.32 3.443-3.86 5.134-.918 1.027-2.737 2.88-4.017 4.106l-2.318 2.234.76.685c1.26 1.127 3.637 2.918 6.675 5.052 1.56 1.107 2.84 2.073 2.84 2.173 0 .08-1.08 1.107-2.38 2.295l-2.378 2.133-2.06-1.268z"/></g></g></svg>