<svg width="100" height="59" viewBox="0 0 100 59" xmlns="http://www.w3.org/2000/svg"><title>Group</title><g fill="none" fill-rule="evenodd"><g fill="#B98801"><path d="M27.368 34.823c-.2-.04-.362-.2-.362-.36 0-.182.22-.242.764-.162 1.448.202 2.654-.88 2.353-2.084-.14-.58.402-.64.703-.08.383.742.222 1.444-.482 2.145-.603.603-.804.683-1.65.663-.542-.02-1.145-.06-1.326-.12zM21.757 33.84c-.24-.68-.08-1.162.564-1.684.745-.58 2.072-.5 2.072.12 0 .18-.242.28-.684.28-.784 0-1.327.563-1.327 1.344 0 .622-.36.582-.623-.06zM29.178 27.986c-.925-.3-1.57-.62-1.57-.78 0-.202.162-.222.564-.142 1.126.28 2.936 1.023 3.016 1.243.1.32-.2.28-2.01-.32zM22.662 27.044c-.985-2.345.704-5.593 3.298-6.315 1.086-.28 2.815-.24 4.022.1 1.408.42 1.387.8 0 .56-2.634-.4-4.645.1-5.69 1.464-.926 1.203-1.167 2.045-1.046 3.55.12 1.502-.1 1.763-.584.64z"/></g><g fill="#D8AA01"><path d="M31.63 45.93c0-.14.463-.442 1.046-.663.584-.2 1.127-.4 1.207-.44.08-.04.16.02.16.16 0 .12-.502.44-1.105.72-1.307.563-1.307.563-1.307.222zM26.624 37.45c-1.61-.422-2.996-1.264-3.68-2.206-.342-.482-.744-.903-.885-.963-.162-.06-.282-.2-.282-.32s.1-.16.2-.1c.12.06.202-.04.202-.26 0-.2.22-.622.502-.922.584-.622.362-.682-.382-.1-.663.52-.683.12-.02-.522.744-.762 1.59-.662 2.474.26 1.005 1.043 2.433 1.845 3.277 1.845.383 0 .987-.18 1.37-.42.36-.22.723-.36.783-.3.16.18-.422.76-1.066 1.042-.724.32-.362.38.423.08.925-.36 1.528-1.604.784-1.604-.342 0-.423-.7-.08-.902.4-.26-.926-1.103-2.333-1.524-2.312-.66-3.056-.982-3.56-1.463-.863-.843-1.205-1.364-1.306-2.066-.08-.46-.26-.742-.502-.822-.483-.12-.463-.56.04-.702.26-.06.402-.28.402-.58 0-.622 1.046-2.206 1.95-2.948.805-.66 2.012-1.022 3.36-1.022.522 0 .924-.1.984-.24.14-.462 2.353.42 3.117 1.222.885.942.885 1.784 0 2.526-.704.58-1.227.6-2.675.02-1.045-.4-2.513-.4-3.076 0-.503.34-.623 1.504-.18 1.824.12.1.783.36 1.447.542 2.213.64 3.8 1.383 4.505 2.105 2.473 2.565 1.65 6.695-1.63 8.318-1.205.602-2.452.662-4.16.2zM47.718 29.45c0-.662.08-.902.3-.902.222 0 .303.24.303.902 0 .66-.08.902-.3.902-.222 0-.302-.24-.302-.902z"/></g><path d="M30.223 52.144c0-.22.16-.34.483-.34.583 0 3.257-.883 4.745-1.565 1.37-.622 3.66-2.086 4.707-3.028 1.448-1.263 4.745-5.373 4.745-5.914 0-.04.302-.742.684-1.564 1.65-3.528 2.212-6.134 2.212-10.284s-.563-6.756-2.212-10.285c-.382-.82-.684-1.523-.684-1.563 0-.602-3.62-5.032-4.906-6.015-2.855-2.165-6.113-3.768-8.727-4.31-.846-.18-1.248-.36-1.248-.54 0-.262.422-.282 2.675-.18 2.855.14 3.78.32 6.273 1.322 2.253.9 4.525 2.424 6.496 4.31 1.608 1.543 3.66 3.988 3.66 4.37 0 .08.22.52.502.962.804 1.263 2.09 4.57 2.554 6.515.623 2.606.623 8.22 0 10.826-.463 1.944-1.75 5.252-2.554 6.515-.282.44-.503.882-.503.962 0 .38-2.05 2.827-3.66 4.37-1.97 1.885-4.242 3.41-6.495 4.31-2.473.983-3.418 1.184-6.173 1.324-2.312.1-2.574.08-2.574-.2z" fill="#BB7301"/><g fill="#D59004"><path d="M25.498 46.59c-1.83-.3-2.594-.52-3.82-1.082-2.454-1.143-2.876-1.463-4.988-3.63-1.327-1.362-1.75-1.943-2.715-3.707-2.473-4.57-2.915-9.763-1.246-14.634 1.447-4.23 4.744-8.14 8.263-9.783 2.976-1.404 3.42-1.504 6.415-1.524 3.077-.02 3.64.12 6.797 1.623 1.468.722 2.17 1.203 3.338 2.386 1.83 1.803 3.52 4.21 4.02 5.692.223.6.464 1.203.564 1.323.16.22.342.942.785 3.188.26 1.283.26 4.75.02 5.914-.12.5-.302 1.383-.422 1.984-.12.603-.302 1.184-.403 1.305-.08.12-.32.72-.543 1.323-.764 2.285-4.484 6.696-6.374 7.578-2.534 1.183-3.157 1.443-4.263 1.724-1.468.4-4.062.54-5.43.32zm4.645-3.408c2.312-.72 4.987-2.385 6.193-3.89.402-.48.724-.92.724-1 0-.08.2-.442.463-.783.422-.582 1.146-1.986 1.568-3.048.443-1.063.785-3.308.785-5.012 0-1.704-.342-3.95-.784-5.012-.4-1.022-1.145-2.466-1.567-3.027-.262-.34-.463-.7-.463-.8 0-.422-1.77-2.186-3.097-3.068-5.49-3.71-12.407-2.266-16.207 3.388-1.75 2.586-2.453 4.75-2.574 7.94-.08 2.023-.02 2.685.362 4.168.462 1.885 1.025 3.248 1.77 4.27.24.34.442.722.442.822 0 .42 2.775 2.988 4 3.73 2.575 1.483 6.094 2.044 8.387 1.322z"/><path d="M22.662 35.123c-.22-.26-.522-.7-.663-.982-.243-.48-.222-.58.16-.96.563-.563.623-.543.482.26-.08.52 0 .84.322 1.282.22.34.422.662.422.722 0 .26-.342.1-.724-.32zM27.368 34.923c-.583-.2-.764-.56-.302-.56.12 0 .543.08.905.18.383.12.645.12.645.02 0-.1.14-.14.3-.08.162.08.303.24.303.38 0 .3-1.046.34-1.85.06zM23.185 24.217c0-.44 1.287-2.145 1.99-2.586.966-.64 1.83-.84 1.83-.44 0 .18-.28.34-.703.42-.724.142-1.83 1.064-2.674 2.227-.242.34-.443.5-.443.38zM31.23 21.852c-.122-.16-.363-.24-.524-.18-.16.06-.282-.02-.282-.22 0-.182.12-.322.262-.322.462 0 1.347.5 1.347.762 0 .34-.503.3-.804-.04z"/></g><g fill="#323232"><path d="M16.107 52.404c-.724-.38-1.086-.74-.925-.922.16-.14 1.97.822 1.97 1.083 0 .32-.16.3-1.045-.16zM90.428 46.37c-1.79-.942-5.39-3.388-7.3-4.952l-1.708-1.383-2.413 1.744c-4.082 2.906-6.616 4.53-7.34 4.67-1.166.24-2.03-.18-4.263-2.045-2.373-1.984-2.695-2.506-2.554-4.07.12-1.122-.26-.7 6.314-7.016l2.232-2.126-1.246-1.744c-1.51-2.105-3.52-5.293-4.545-7.217-2.192-4.09-1.77-5.493 2.272-7.418 1.71-.822 2.273-1.002 3.177-1.002 1.428 0 1.75.26 3.86 3.027 1.67 2.225 4.928 6.094 5.13 6.094.06 0 2.03-1.844 4.403-4.11 2.373-2.265 4.544-4.21 4.826-4.31.643-.26 1.71-.26 2.353-.02.28.1 1.69.983 3.137 1.925 2.594 1.723 2.634 1.743 2.955 2.826.302.902.322 1.203.1 1.924-.542 1.825-2.633 4.59-6.233 8.24l-2.332 2.365.603.502c.342.26 2.172 1.583 4.102 2.947 3.78 2.646 4.042 2.947 4.042 4.59-.02.482-.12 1.103-.26 1.384-.263.56-4.425 4.43-5.672 5.292-1.066.702-2.132.662-3.64-.12zm6.355-6.576c-.02-.06-.744-.62-1.65-1.222-2.03-1.364-6.816-4.952-7.902-5.915l-.803-.72 2.352-2.247c3.237-3.107 5.59-5.713 6.937-7.678.623-.922 1.106-1.704 1.046-1.744-.04-.02-1.006-.66-2.152-1.403l-2.07-1.363-2.192 2.064c-1.207 1.143-3.62 3.43-5.35 5.072l-3.156 3.008-1.186-1.303c-1.87-2.025-4.967-5.734-6.395-7.64l-1.286-1.743-1.67.822c-.924.46-1.668.902-1.668 1.003 0 .1.442 1.042 1.005 2.105 1.188 2.325 3.28 5.573 5.49 8.52.886 1.183 1.53 2.245 1.43 2.325-.102.08-2.213 2.085-4.707 4.43-2.493 2.346-4.604 4.35-4.685 4.41-.16.142 2.272 2.307 2.815 2.547.262.1 3.982-2.365 7.923-5.272 1.408-1.043 2.614-1.885 2.675-1.885.08 0 .926.682 1.87 1.504 2.414 2.104 4.445 3.607 6.858 5.05l2.09 1.244 2.193-1.925c1.207-1.063 2.193-1.985 2.193-2.046z"/></g><path d="M25.8 55.41c-3.238-.38-5.128-.92-7.702-2.204-1.348-.68-2.634-1.343-2.856-1.463-1.468-.822-4.625-3.89-6.153-5.954-.524-.723-1.167-1.565-1.41-1.886-.26-.32-.602-1.002-.783-1.503-.18-.5-.543-1.323-.804-1.824-.744-1.423-1.61-4.33-1.99-6.615-.403-2.385-.423-6.595-.04-9.02.42-2.587 1.87-6.757 3.176-9.163 1.547-2.766 5.79-7.357 8.002-8.62 1.55-.882 5.39-2.646 6.133-2.847 3.218-.802 4.183-.902 8.446-.902 2.736-.02 4.666.06 5.23.22.502.12 1.688.422 2.674.662 1.608.4 3.117.983 4.363 1.724.282.16.724.38 1.006.5.643.262 1.206.603 1.71 1.024.22.18.884.722 1.447 1.163.583.462 1.066.903 1.066 1.003 0 .1.3.36.683.58.36.242.924.803 1.226 1.264.322.482 1.025 1.404 1.568 2.045 1.59 1.925 3.6 6.456 4.223 9.543 1.166 5.734.985 9.923-.603 14.935-.302.943-.563 1.544-2.03 4.712-.564 1.202-2.595 4.05-3.74 5.212-.967.982-2.052 1.944-2.937 2.626-.503.38-.965.762-1.026.842-.16.22-.904.642-1.587.922-.282.12-.724.34-1.006.5-1.246.743-2.755 1.325-4.363 1.726-.986.22-2.112.52-2.534.62-1.046.282-7.5.402-9.39.18zm10.556-3.848c3.6-1.042 6.998-3.047 9.35-5.513 1.59-1.625 3.017-3.39 3.017-3.71 0-.08.22-.52.503-.962.804-1.263 2.09-4.57 2.554-6.515.623-2.606.623-8.22 0-10.826-.463-1.945-1.75-5.252-2.554-6.515-.282-.44-.503-.883-.503-.963 0-.32-1.428-2.086-3.016-3.71-1.79-1.884-4.263-3.548-6.737-4.55-3.056-1.243-3.438-1.303-9.55-1.303h-5.53l-1.61.56c-2.17.763-5.087 2.226-5.39 2.707-.08.12-.26.24-.36.24-.322 0-1.59 1.023-2.394 1.905-.382.44-.965 1.022-1.287 1.303-.725.64-2.092 2.646-2.916 4.31-.905 1.844-2.112 5.132-2.413 6.615C7 27.124 7 31.775 7.52 34.26c.322 1.625 1.61 5.073 2.454 6.617.18.34.482.922.684 1.303.965 1.905 4 5.072 6.294 6.576 2.473 1.603 5.127 2.646 8.043 3.127.28.04 2.715.06 5.43.02 3.56-.04 5.207-.14 5.93-.34z" fill="#000"/><g fill="#FFD800"><path d="M24.894 52.184c-1.226-.16-2.855-.642-5.027-1.464-.32-.14-1.045-.5-1.588-.822-2.736-1.664-2.917-1.824-5.732-4.79l-1.287-1.364.262-.722c.563-1.624 2.293-5.052 2.514-5.052.14 0 .442.38.663.862.683 1.424 3.78 4.67 5.167 5.413 4.746 2.506 9.27 2.827 13.292.922.683-.32 1.306-.58 1.387-.58.34 0 1.95-1.304 3.297-2.668 1.247-1.264 3.037-3.67 3.037-4.07 0-.06.182-.5.403-.983 1.528-3.347 1.91-8.32.925-11.988-.282-1.084-.704-2.347-.925-2.848-.22-.48-.402-.922-.402-.982 0-.06-.34-.642-.763-1.323-.785-1.223-3.037-3.67-4.203-4.55-.362-.282-.664-.582-.664-.663 0-.1.382-.38.865-.66.463-.262 1.568-.903 2.453-1.425.885-.502 1.65-.923 1.73-.923.422 0 5.007 5.774 5.007 6.295 0 .04.3.742.683 1.564 1.508 3.288 2.132 6.215 2.132 10.084 0 4.47-.744 7.377-3.057 12.048-1.126 2.286-4.504 5.915-7.058 7.598-1.89 1.243-4.263 2.286-6.233 2.787-1.67.42-4.967.56-6.878.3z"/><path d="M24.834 43.483c-1.81-.44-4.102-1.724-5.53-3.087-1.347-1.283-3.56-4.75-3.56-5.593 0-.2.544-1.183 1.208-2.166.663-.982 1.206-1.884 1.206-2.004 0-.12.2-.4.463-.642.242-.22 1.127-1.282 1.95-2.324.826-1.063 1.61-1.925 1.71-1.925.12 0 .483.562.805 1.264.764 1.584 1.79 2.285 4.243 2.947 1.387.362 1.93.602 2.453 1.124 1.127 1.122.845 2.466-.703 3.267-1.106.563-2.876-.08-4.303-1.602-.845-.902-1.73-1.043-2.393-.38-.663.66-.522 1.482.423 2.505 1.448 1.563 4.323 2.666 6.455 2.466 3.48-.342 5.37-4.612 3.378-7.62-.482-.72-.885-1.022-1.97-1.503-.744-.34-1.67-.682-2.05-.762-1.81-.4-2.817-1.123-2.817-2.025 0-1.443 1.95-2.125 3.92-1.363 1.308.5 1.87.56 2.414.2.623-.4.663-1.403.12-2.064-.543-.642-2.272-1.263-3.54-1.263-.602 0-1.145-.1-1.226-.24-.08-.14.282-.622.946-1.204 1.427-1.303 3.88-3.167 4.142-3.167.724 0 4.886 3.647 4.886 4.27 0 .1.2.46.463.8.704.983.945 1.504 1.608 3.45.564 1.683.624 2.004.624 4.61 0 2.606-.06 2.947-.624 4.61-.603 1.785-1.246 3.108-1.79 3.73-.16.16-.28.4-.28.5 0 .12-.443.703-1.006 1.324-2.272 2.546-5.79 4.19-8.908 4.15-.906-.02-2.133-.14-2.716-.28z"/></g><g fill="#FFF"><path d="M23.306 58.7c-1.086-.14-2.453-.422-3.016-.602-2.273-.762-3.74-1.323-3.86-1.504-.062-.1-.263-.18-.444-.18-.402 0-3.418-1.804-4.665-2.807-2.854-2.285-5.207-4.992-6.896-7.98-.463-.8-1.046-1.783-1.287-2.204-.24-.4-.442-.942-.442-1.163-.02-.24-.242-.842-.523-1.303-.282-.48-.503-1.102-.503-1.383 0-.28-.142-.762-.303-1.083-.16-.3-.3-.78-.3-1.06 0-.262-.082-.663-.202-.863-.825-1.564-1.147-8.74-.523-12.11.18-.96.422-1.924.523-2.124.12-.2.2-.6.2-.862 0-.28.142-.76.302-1.062.16-.32.302-.8.302-1.082 0-.28.22-.902.502-1.383.28-.462.502-1.063.523-1.304 0-.22.22-.782.482-1.223.262-.44.724-1.243 1.026-1.805 1.448-2.706 3.96-5.733 6.394-7.698 1.67-1.363 4.927-3.428 5.39-3.428.18 0 .38-.08.442-.18.16-.24 3.498-1.464 5.147-1.865C22.964.1 29.6-.1 33.4.08c3.86.18 6.053.582 7.782 1.383.443.2 1.167.542 1.61.722 1.91.822 2.935 1.424 5.61 3.228.804.54 3.478 3.268 4.504 4.59 1.307 1.685 3.076 4.672 3.68 6.175.32.802.663 1.584.744 1.745.16.28.34.842 1.146 3.708.844 2.948 1.005 4.21 1.005 7.82 0 3.608-.16 4.87-1.004 7.818-.805 2.867-.986 3.43-1.146 3.71-.08.16-.423.94-.724 1.723-.604 1.505-2.413 4.512-3.72 6.196-1.207 1.544-3.66 4.03-4.666 4.71-2.533 1.725-3.56 2.307-5.43 3.11-.44.18-1.065.48-1.407.64-1.045.52-3.297 1.063-5.59 1.363-2.775.38-9.732.36-12.487-.02zm12.648-3.97c3.42-.622 7.22-2.386 9.853-4.57 2.192-1.845 2.554-2.186 4.283-4.43 1.408-1.826 1.63-2.187 2.615-4.352 1.97-4.37 2.674-7.478 2.674-11.928 0-4.45-.685-7.518-2.675-11.928-1.006-2.226-1.086-2.366-3.88-5.975-1.288-1.684-4.546-4.15-7.04-5.332C37.564 4.19 35.674 3.81 29.822 3.81c-5.75 0-8.063.44-12.064 2.345C13.19 8.32 8.868 12.79 6.856 17.38c-2.21 5.073-2.673 7.118-2.673 12.07 0 4.13.22 5.513 1.307 8.62 1.186 3.348 2.17 5.333 3.8 7.478 2.574 3.448 5.168 5.653 8.466 7.217 3.016 1.424 5.168 2.005 8.647 2.326 1.79.16 7.963-.08 9.55-.36z"/><path d="M10.758 42.942c-5.087-8.54-5.41-17.06-.925-25.34 1.146-2.085 1.69-2.827 3.62-4.872 2.352-2.506 5.248-4.29 8.767-5.453 1.59-.52 2.272-.64 4.585-.72 3.137-.122 4.926.2 7.822 1.422 1.85.78 5.65 3.207 5.65 3.607 0 .16-.744.702-1.648 1.223-.926.522-2.052 1.183-2.535 1.444l-.845.5-1.468-.7c-2.734-1.304-3.398-1.444-6.374-1.424-2.996.02-3.44.12-6.435 1.524-5.127 2.385-8.848 8.86-8.848 15.336 0 .982.18 2.566.403 3.568.34 1.624.583 2.386 1.407 4.41.22.542.18.743-.442 2.006-.382.782-.945 2.004-1.267 2.766-.302.742-.684 1.343-.824 1.343-.14 0-.423-.3-.644-.64z"/><path d="M15.202 33.42c-.28-.903-.362-1.845-.362-4.07 0-2.747.04-3.007.664-4.772.744-2.185 2.533-4.95 4-6.234 3.36-2.968 7.643-3.99 11.363-2.727.804.28 1.488.5 1.528.5.02 0 .04.122.04.282 0 .14-.482.64-1.066 1.08-.604.443-1.388 1.104-1.77 1.445-1.59 1.463-2.313 1.965-3.137 2.105-1.347.22-2.534 1.103-3.157 2.325-.282.582-.523 1.243-.523 1.464-.02.24-.12.6-.26.82-.363.602-3.24 4.17-3.62 4.49-.202.142-.343.362-.343.483 0 .36-2.493 3.95-2.755 3.95-.14 0-.402-.522-.603-1.144zM90.127 42.822c-2.313-1.404-4.344-2.907-6.676-4.952-.944-.822-1.79-1.504-1.87-1.504-.06 0-1.266.842-2.674 1.885-2.896 2.126-7.54 5.333-7.762 5.333-.22 0-3.418-2.626-3.418-2.806 0-.06 1.226-1.283 2.714-2.707 1.488-1.423 3.64-3.468 4.766-4.57l2.07-2.005-1.587-2.125c-3.178-4.27-6.637-10.084-6.376-10.746.1-.3 3.157-1.904 3.6-1.904.16 0 .905.842 1.67 1.864 1.366 1.824 4.342 5.393 6.273 7.558l.985 1.103L85 24.238c1.728-1.664 4.14-3.93 5.348-5.073L92.54 17.1l2.332 1.544c1.65 1.083 2.313 1.624 2.232 1.825-.28.72-2.332 3.427-3.88 5.11-.926 1.023-2.755 2.868-4.042 4.09l-2.333 2.226.763.68c1.267 1.124 3.66 2.908 6.716 5.033 1.568 1.102 2.855 2.064 2.855 2.164 0 .26-4.545 4.21-4.866 4.21-.142 0-1.148-.52-2.193-1.162z"/></g></g></svg>