<?xml version="1.0" encoding="UTF-8"?>
<svg width="16px" height="16px" viewBox="0 0 16 16" version="1.1" xmlns="http://www.w3.org/2000/svg" xmlns:xlink="http://www.w3.org/1999/xlink">
    <!-- Generator: Sketch 53.2 (72643) - https://sketchapp.com -->
    <title>云/云列表</title>
    <desc>Created with Sketch.</desc>
    <g id="云/云列表" stroke="none" stroke-width="1" fill="none" fill-rule="evenodd">
        <path d="M3.82608696,12.9958501 C3.76845517,12.9986064 3.71047407,13 3.65217391,13 C1.63513396,13 0,11.3318996 0,9.27419355 C0,7.4018522 1.35380686,5.85208435 3.11728333,5.5880623 C3.87871048,3.49303589 5.85539897,2 8.17391304,2 C11.1003966,2 13.4822807,4.37871801 13.563098,7.34427417 C14.936754,7.517929 16,8.71293909 16,10.1612903 C16,11.6088966 14.9378475,12.8034222 13.5652174,12.9780377 L13.5652174,13 L3.82608696,13 L3.82608696,12.9958501 Z M5.7,7.2 C6.1418278,7.2 6.5,6.86421356 6.5,6.45 C6.5,6.03578644 6.1418278,5.7 5.7,5.7 C5.2581722,5.7 4.9,6.03578644 4.9,6.45 C4.9,6.86421356 5.2581722,7.2 5.7,7.2 Z M5.7,9.2 C6.1418278,9.2 6.5,8.86421356 6.5,8.45 C6.5,8.03578644 6.1418278,7.7 5.7,7.7 C5.2581722,7.7 4.9,8.03578644 4.9,8.45 C4.9,8.86421356 5.2581722,9.2 5.7,9.2 Z M5.7,11.2 C6.1418278,11.2 6.5,10.8642136 6.5,10.45 C6.5,10.0357864 6.1418278,9.7 5.7,9.7 C5.2581722,9.7 4.9,10.0357864 4.9,10.45 C4.9,10.8642136 5.2581722,11.2 5.7,11.2 Z M7.8,6 C7.52385763,6 7.3,6.22385763 7.3,6.5 C7.3,6.77614237 7.52385763,7 7.8,7 L10.8,7 C11.0761424,7 11.3,6.77614237 11.3,6.5 C11.3,6.22385763 11.0761424,6 10.8,6 L7.8,6 Z M7.8,8 C7.52385763,8 7.3,8.22385763 7.3,8.5 C7.3,8.77614237 7.52385763,9 7.8,9 L10.8,9 C11.0761424,9 11.3,8.77614237 11.3,8.5 C11.3,8.22385763 11.0761424,8 10.8,8 L7.8,8 Z M7.8,10 C7.52385763,10 7.3,10.2238576 7.3,10.5 C7.3,10.7761424 7.52385763,11 7.8,11 L10.8,11 C11.0761424,11 11.3,10.7761424 11.3,10.5 C11.3,10.2238576 11.0761424,10 10.8,10 L7.8,10 Z" id="合并形状" fill="#FFFFFF"></path>
    </g>
</svg>