<?xml version="1.0" encoding="UTF-8"?>
<svg width="16px" height="16px" viewBox="0 0 16 16" version="1.1" xmlns="http://www.w3.org/2000/svg" xmlns:xlink="http://www.w3.org/1999/xlink">
    <!-- Generator: Sketch 53.2 (72643) - https://sketchapp.com -->
    <title>云/私有云变量</title>
    <desc>Created with Sketch.</desc>
    <g id="云/私有云变量" stroke="none" stroke-width="1" fill="none" fill-rule="evenodd">
        <path d="M3.82608696,12.9958501 C3.76845517,12.9986064 3.71047407,13 3.65217391,13 C1.63513396,13 0,11.3318996 0,9.27419355 C0,7.4018522 1.35380686,5.85208435 3.11728333,5.5880623 C3.87871048,3.49303589 5.85539897,2 8.17391304,2 C11.1003966,2 13.4822807,4.37871801 13.563098,7.34427417 C14.936754,7.517929 16,8.71293909 16,10.1612903 C16,11.6088966 14.9378475,12.8034222 13.5652174,12.9780377 L13.5652174,13 L3.82608696,13 L3.82608696,12.9958501 Z M7.25325825,7.80120605 L6.5923748,10.5050256 C6.58477644,10.5361122 6.58093607,10.5679983 6.58093607,10.6 C6.58093607,10.8209139 6.76002217,11 6.98093607,11 L9.01895739,11 C9.05095912,11 9.08284523,10.9961596 9.11393182,10.9885613 C9.32852828,10.9361083 9.45997158,10.719622 9.40751866,10.5050256 L8.74664834,7.80125977 C9.19684706,7.54238312 9.5,7.05659414 9.5,6.5 C9.5,5.67157288 8.82842712,5 8,5 C7.17157288,5 6.5,5.67157288 6.5,6.5 C6.5,7.05655565 6.80311101,7.54231592 7.25325825,7.80120605 Z" id="合并形状" fill="#333333"></path>
    </g>
</svg>